<?xml version="1.0" encoding="UTF-8" standalone="no"?>
<!DOCTYPE svg PUBLIC "-//W3C//DTD SVG 1.1//EN"
 "http://www.w3.org/Graphics/SVG/1.1/DTD/svg11.dtd">
<!-- Generated by graphviz version 14.0.5 (20251129.0259)
 -->
<!-- Title: powl Pages: 1 -->
<svg width="1486pt" height="2382pt"
 viewBox="0.00 0.00 1486.00 2382.00" xmlns="http://www.w3.org/2000/svg" xmlns:xlink="http://www.w3.org/1999/xlink">
<g id="graph0" class="graph" transform="scale(1 1) rotate(0) translate(4 2378.4)">
<title>powl</title>
<polygon fill="white" stroke="none" points="-4,4 -4,-2378.4 1482,-2378.4 1482,4 -4,4"/>
<g id="clust1" class="cluster">
<title>cluster_2256959448944</title>
<polygon fill="#fcfcfc" stroke="black" points="8,-8 8,-2366.4 1470,-2366.4 1470,-8 8,-8"/>
</g>
<g id="clust2" class="cluster">
<title>cluster_2256959729440</title>
<polygon fill="#f7f7f7" stroke="black" points="850,-1304 850,-1718.4 1396,-1718.4 1396,-1304 850,-1304"/>
</g>
<!-- anchor_cluster_2256959448944 -->
<!-- 2256955104736 -->
<g id="node2" class="node">
<title>2256955104736</title>
<polygon fill="#f7f7f7" stroke="black" points="1114.62,-712 571.38,-712 571.38,-676 1114.62,-676 1114.62,-712"/>
<text xml:space="preserve" text-anchor="start" x="579.38" y="-687.4" font-family="Times New Roman,serif" font-size="18.00">calculation interest interest net payments planned relevant remuneration</text>
</g>
<!-- 2256959730016 -->
<g id="node17" class="node">
<title>2256959730016</title>
<polygon fill="#f7f7f7" stroke="black" points="976.62,-604 709.38,-604 709.38,-568 976.62,-568 976.62,-604"/>
<text xml:space="preserve" text-anchor="start" x="717.38" y="-579.4" font-family="Times New Roman,serif" font-size="18.00">available be evaluation processing</text>
</g>
<!-- 2256955104736&#45;&gt;2256959730016 -->
<g id="edge6" class="edge">
<title>2256955104736&#45;&gt;2256959730016</title>
<path fill="none" stroke="black" d="M843,-675.97C843,-659.76 843,-635.06 843,-615.79"/>
<polygon fill="black" stroke="black" points="846.5,-615.85 843,-605.85 839.5,-615.85 846.5,-615.85"/>
</g>
<!-- 2256955112032 -->
<g id="node3" class="node">
<title>2256955112032</title>
<polygon fill="#f7f7f7" stroke="black" points="830.25,-1475.2 545.75,-1475.2 545.75,-1439.2 830.25,-1439.2 830.25,-1475.2"/>
<text xml:space="preserve" text-anchor="start" x="553.75" y="-1450.6" font-family="Times New Roman,serif" font-size="18.00">is notification processing shipping to</text>
</g>
<!-- 2256959732464 -->
<g id="node9" class="node">
<title>2256959732464</title>
<polygon fill="#f7f7f7" stroke="black" points="829.75,-1363.6 644.25,-1363.6 644.25,-1327.6 829.75,-1327.6 829.75,-1363.6"/>
<text xml:space="preserve" text-anchor="start" x="652.25" y="-1339" font-family="Times New Roman,serif" font-size="18.00">created is is is proposal</text>
</g>
<!-- 2256955112032&#45;&gt;2256959732464 -->
<g id="edge7" class="edge">
<title>2256955112032&#45;&gt;2256959732464</title>
<path fill="none" stroke="black" d="M695.66,-1439.07C703.41,-1421.72 715.54,-1394.61 724.65,-1374.21"/>
<polygon fill="black" stroke="black" points="727.73,-1375.91 728.62,-1365.35 721.34,-1373.05 727.73,-1375.91"/>
</g>
<!-- 2256955104496 -->
<g id="node4" class="node">
<title>2256955104496</title>
<polygon fill="#f7f7f7" stroke="black" points="716.12,-2346.4 397.88,-2346.4 397.88,-2310.4 716.12,-2310.4 716.12,-2346.4"/>
<text xml:space="preserve" text-anchor="start" x="405.88" y="-2321.8" font-family="Times New Roman,serif" font-size="18.00">72d3606d&#45;ba78&#45;423c&#45;8558&#45;6ef75cef4102</text>
</g>
<!-- 2256959730256 -->
<g id="node14" class="node">
<title>2256959730256</title>
<polygon fill="#f7f7f7" stroke="black" points="572.38,-1363.6 27.62,-1363.6 27.62,-1327.6 572.38,-1327.6 572.38,-1363.6"/>
<text xml:space="preserve" text-anchor="start" x="35.62" y="-1339" font-family="Times New Roman,serif" font-size="18.00">created for from inbound is measurement notification order printed sales</text>
</g>
<!-- 2256955104496&#45;&gt;2256959730256 -->
<g id="edge8" class="edge">
<title>2256955104496&#45;&gt;2256959730256</title>
<path fill="none" stroke="black" d="M528.93,-2310.04C480.64,-2277.77 387,-2203.55 387,-2113.4 387,-2113.4 387,-2113.4 387,-1564.2 387,-1491.03 344.06,-1413.27 318.52,-1373.49"/>
<polygon fill="black" stroke="black" points="321.53,-1371.69 313.11,-1365.25 315.67,-1375.53 321.53,-1371.69"/>
</g>
<!-- 2256959729920 -->
<g id="node30" class="node">
<title>2256959729920</title>
<polygon fill="#f7f7f7" stroke="black" points="914,-2238.4 496,-2238.4 496,-2202.4 914,-2202.4 914,-2238.4"/>
<text xml:space="preserve" text-anchor="start" x="504" y="-2213.8" font-family="Times New Roman,serif" font-size="18.00">are are be cash costs costs in material must updated via</text>
</g>
<!-- 2256955104496&#45;&gt;2256959729920 -->
<g id="edge9" class="edge">
<title>2256955104496&#45;&gt;2256959729920</title>
<path fill="none" stroke="black" d="M581.11,-2310.13C605.73,-2292.5 644.14,-2264.99 671.66,-2245.28"/>
<polygon fill="black" stroke="black" points="673.58,-2248.21 679.67,-2239.54 669.5,-2242.52 673.58,-2248.21"/>
</g>
<!-- 2256955101424 -->
<g id="node5" class="node">
<title>2256955101424</title>
<polygon fill="#f7f7f7" stroke="black" points="1139.25,-928 710.75,-928 710.75,-892 1139.25,-892 1139.25,-928"/>
<text xml:space="preserve" text-anchor="start" x="718.75" y="-903.4" font-family="Times New Roman,serif" font-size="18.00">are calculation drawing for for physical recorded sample</text>
</g>
<!-- 2256959732368 -->
<g id="node11" class="node">
<title>2256959732368</title>
<polygon fill="#f7f7f7" stroke="black" points="1002.12,-820 683.88,-820 683.88,-784 1002.12,-784 1002.12,-820"/>
<text xml:space="preserve" text-anchor="start" x="691.88" y="-795.4" font-family="Times New Roman,serif" font-size="18.00">61d485dd&#45;85b3&#45;4d0a&#45;92ff&#45;cca77e4201d0</text>
</g>
<!-- 2256955101424&#45;&gt;2256959732368 -->
<g id="edge10" class="edge">
<title>2256955101424&#45;&gt;2256959732368</title>
<path fill="none" stroke="black" d="M911.83,-891.97C898.75,-875.07 878.53,-848.94 863.39,-829.36"/>
<polygon fill="black" stroke="black" points="866.23,-827.31 857.34,-821.54 860.69,-831.59 866.23,-827.31"/>
</g>
<!-- 2256955113232 -->
<g id="node6" class="node">
<title>2256955113232</title>
<polygon fill="#f7f7f7" stroke="black" points="1360.75,-388 1097.25,-388 1097.25,-352 1360.75,-352 1360.75,-388"/>
<text xml:space="preserve" text-anchor="start" x="1105.25" y="-363.4" font-family="Times New Roman,serif" font-size="18.00">actual carried data date entered to</text>
</g>
<!-- 2256955101616 -->
<g id="node7" class="node">
<title>2256955101616</title>
<polygon fill="#f7f7f7" stroke="black" points="1375.62,-280 1054.38,-280 1054.38,-244 1375.62,-244 1375.62,-280"/>
<text xml:space="preserve" text-anchor="start" x="1062.38" y="-255.4" font-family="Times New Roman,serif" font-size="18.00">2267926c&#45;d088&#45;49ea&#45;a558&#45;14ebc37aabe3</text>
</g>
<!-- 2256955113232&#45;&gt;2256955101616 -->
<g id="edge11" class="edge">
<title>2256955113232&#45;&gt;2256955101616</title>
<path fill="none" stroke="black" d="M1226.75,-351.97C1224.6,-335.69 1221.32,-310.82 1218.77,-291.52"/>
<polygon fill="black" stroke="black" points="1222.27,-291.3 1217.49,-281.84 1215.33,-292.21 1222.27,-291.3"/>
</g>
<!-- 2256959730208 -->
<g id="node13" class="node">
<title>2256959730208</title>
<polygon fill="#f7f7f7" stroke="black" points="1373.88,-172 1060.12,-172 1060.12,-136 1373.88,-136 1373.88,-172"/>
<text xml:space="preserve" text-anchor="start" x="1068.12" y="-147.4" font-family="Times New Roman,serif" font-size="18.00">carried date flows foreign in to valuation</text>
</g>
<!-- 2256955101616&#45;&gt;2256959730208 -->
<g id="edge12" class="edge">
<title>2256955101616&#45;&gt;2256959730208</title>
<path fill="none" stroke="black" d="M1215.32,-243.97C1215.63,-227.76 1216.09,-203.06 1216.46,-183.79"/>
<polygon fill="black" stroke="black" points="1219.95,-183.92 1216.64,-173.85 1212.96,-183.79 1219.95,-183.92"/>
</g>
<!-- 2256959732800 -->
<g id="node8" class="node">
<title>2256959732800</title>
<polygon fill="#f7f7f7" stroke="black" points="1002.12,-496 683.88,-496 683.88,-460 1002.12,-460 1002.12,-496"/>
<text xml:space="preserve" text-anchor="start" x="691.88" y="-471.4" font-family="Times New Roman,serif" font-size="18.00">4086173a&#45;a3bd&#45;4f36&#45;9cce&#45;44b1f4b6b735</text>
</g>
<!-- 2256959732800&#45;&gt;2256955113232 -->
<g id="edge13" class="edge">
<title>2256959732800&#45;&gt;2256955113232</title>
<path fill="none" stroke="black" d="M906.31,-459.61C974.36,-440.93 1082.44,-411.25 1154.53,-391.45"/>
<polygon fill="black" stroke="black" points="1155.16,-394.91 1163.88,-388.88 1153.31,-388.16 1155.16,-394.91"/>
</g>
<!-- 2256959452256 -->
<g id="node27" class="node">
<title>2256959452256</title>
<polygon fill="#f7f7f7" stroke="black" points="1025.25,-388 578.75,-388 578.75,-352 1025.25,-352 1025.25,-388"/>
<text xml:space="preserve" text-anchor="start" x="586.75" y="-363.4" font-family="Times New Roman,serif" font-size="18.00">bill bills completed exchange maintained payable payment</text>
</g>
<!-- 2256959732800&#45;&gt;2256959452256 -->
<g id="edge14" class="edge">
<title>2256959732800&#45;&gt;2256959452256</title>
<path fill="none" stroke="black" d="M836.41,-459.97C830.05,-443.53 820.32,-418.35 812.82,-398.97"/>
<polygon fill="black" stroke="black" points="816.13,-397.82 809.25,-389.75 809.6,-400.34 816.13,-397.82"/>
</g>
<!-- 2256959730112 -->
<g id="node18" class="node">
<title>2256959730112</title>
<polygon fill="#f7f7f7" stroke="black" points="869.12,-1252 550.88,-1252 550.88,-1216 869.12,-1216 869.12,-1252"/>
<text xml:space="preserve" text-anchor="start" x="558.88" y="-1227.4" font-family="Times New Roman,serif" font-size="18.00">e689ec97&#45;5f53&#45;404e&#45;b59d&#45;0a0f14b10545</text>
</g>
<!-- 2256959732464&#45;&gt;2256959730112 -->
<g id="edge15" class="edge">
<title>2256959732464&#45;&gt;2256959730112</title>
<path fill="none" stroke="black" d="M732.78,-1327.47C728.57,-1310.36 722.01,-1283.75 717.01,-1263.46"/>
<polygon fill="black" stroke="black" points="720.43,-1262.71 714.64,-1253.84 713.63,-1264.38 720.43,-1262.71"/>
</g>
<!-- 2256959733232 -->
<g id="node10" class="node">
<title>2256959733232</title>
<polygon fill="#f7f7f7" stroke="black" points="1419.25,-1806.4 972.75,-1806.4 972.75,-1770.4 1419.25,-1770.4 1419.25,-1806.4"/>
<text xml:space="preserve" text-anchor="start" x="980.75" y="-1781.8" font-family="Times New Roman,serif" font-size="18.00">and converted created depreciation is planned process time</text>
</g>
<!-- 2256959730448 -->
<g id="node29" class="node">
<title>2256959730448</title>
<polygon fill="#f7f7f7" stroke="black" points="1412.38,-64 1101.62,-64 1101.62,-28 1412.38,-28 1412.38,-64"/>
<text xml:space="preserve" text-anchor="start" x="1109.62" y="-39.4" font-family="Times New Roman,serif" font-size="18.00">4a77dcfe&#45;25fd&#45;484e&#45;ae6a&#45;84ed577dfeec</text>
</g>
<!-- 2256959733232&#45;&gt;2256959730448 -->
<g id="edge16" class="edge">
<title>2256959733232&#45;&gt;2256959730448</title>
<path fill="none" stroke="black" d="M1325.53,-1769.9C1358.28,-1759.7 1390.72,-1743.64 1414,-1718.4 1461.07,-1667.38 1449,-1635.61 1449,-1566.2 1449,-1566.2 1449,-1566.2 1449,-261 1449,-202.8 1446.28,-181.5 1410,-136 1385.71,-105.54 1347.95,-83.42 1316.03,-68.85"/>
<polygon fill="black" stroke="black" points="1317.84,-65.83 1307.28,-65 1315.02,-72.23 1317.84,-65.83"/>
</g>
<!-- 2256959732368&#45;&gt;2256955104736 -->
<g id="edge17" class="edge">
<title>2256959732368&#45;&gt;2256955104736</title>
<path fill="none" stroke="black" d="M843,-783.97C843,-767.76 843,-743.06 843,-723.79"/>
<polygon fill="black" stroke="black" points="846.5,-723.85 843,-713.85 839.5,-723.85 846.5,-723.85"/>
</g>
<!-- 2256959730544 -->
<g id="node12" class="node">
<title>2256959730544</title>
<polygon fill="#f7f7f7" stroke="black" points="638.38,-928 453.62,-928 453.62,-892 638.38,-892 638.38,-928"/>
<text xml:space="preserve" text-anchor="start" x="461.62" y="-903.4" font-family="Times New Roman,serif" font-size="18.00">header inspection issue</text>
</g>
<!-- 2256959730544&#45;&gt;2256959732368 -->
<g id="edge18" class="edge">
<title>2256959730544&#45;&gt;2256959732368</title>
<path fill="none" stroke="black" d="M594.71,-891.61C646.4,-873.17 728.09,-844.01 783.54,-824.22"/>
<polygon fill="black" stroke="black" points="784.6,-827.56 792.84,-820.9 782.24,-820.97 784.6,-827.56"/>
</g>
<!-- 2256959730208&#45;&gt;2256959730448 -->
<g id="edge19" class="edge">
<title>2256959730208&#45;&gt;2256959730448</title>
<path fill="none" stroke="black" d="M1223.43,-135.97C1229.63,-119.53 1239.13,-94.35 1246.44,-74.97"/>
<polygon fill="black" stroke="black" points="1249.67,-76.35 1249.92,-65.76 1243.12,-73.88 1249.67,-76.35"/>
</g>
<!-- 2256959730256&#45;&gt;2256959730112 -->
<g id="edge20" class="edge">
<title>2256959730256&#45;&gt;2256959730112</title>
<path fill="none" stroke="black" d="M365.42,-1327.11C438.47,-1307.59 556.55,-1276.02 633.73,-1255.39"/>
<polygon fill="black" stroke="black" points="634.59,-1258.78 643.35,-1252.82 632.79,-1252.02 634.59,-1258.78"/>
</g>
<!-- 2256959730304 -->
<g id="node15" class="node">
<title>2256959730304</title>
<polygon fill="#f7f7f7" stroke="black" points="866.5,-1036 553.5,-1036 553.5,-1000 866.5,-1000 866.5,-1036"/>
<text xml:space="preserve" text-anchor="start" x="561.5" y="-1011.4" font-family="Times New Roman,serif" font-size="18.00">e498a0c6&#45;c056&#45;4335&#45;9daa&#45;d5604ebcfffd</text>
</g>
<!-- 2256959730304&#45;&gt;2256955101424 -->
<g id="edge21" class="edge">
<title>2256959730304&#45;&gt;2256955101424</title>
<path fill="none" stroke="black" d="M745.02,-999.73C781.61,-981.69 839.18,-953.31 879.32,-933.52"/>
<polygon fill="black" stroke="black" points="880.86,-936.67 888.28,-929.1 877.76,-930.39 880.86,-936.67"/>
</g>
<!-- 2256959730304&#45;&gt;2256959730544 -->
<g id="edge22" class="edge">
<title>2256959730304&#45;&gt;2256959730544</title>
<path fill="none" stroke="black" d="M683.29,-999.73C655.85,-982 612.96,-954.28 582.42,-934.54"/>
<polygon fill="black" stroke="black" points="584.55,-931.75 574.25,-929.26 580.75,-937.62 584.55,-931.75"/>
</g>
<!-- 2256959730352 -->
<g id="node16" class="node">
<title>2256959730352</title>
<polygon fill="#f7f7f7" stroke="black" points="853.62,-2130.4 628.38,-2130.4 628.38,-2094.4 853.62,-2094.4 853.62,-2130.4"/>
<text xml:space="preserve" text-anchor="start" x="636.38" y="-2105.8" font-family="Times New Roman,serif" font-size="18.00">arisen material order posting</text>
</g>
<!-- 2256959730160 -->
<g id="node19" class="node">
<title>2256959730160</title>
<polygon fill="#f7f7f7" stroke="black" points="965,-2022.4 631,-2022.4 631,-1986.4 965,-1986.4 965,-2022.4"/>
<text xml:space="preserve" text-anchor="start" x="639" y="-1997.8" font-family="Times New Roman,serif" font-size="18.00">be for material packaging reason returnable</text>
</g>
<!-- 2256959730352&#45;&gt;2256959730160 -->
<g id="edge23" class="edge">
<title>2256959730352&#45;&gt;2256959730160</title>
<path fill="none" stroke="black" d="M750.16,-2094.37C759.08,-2077.78 772.79,-2052.28 783.25,-2032.83"/>
<polygon fill="black" stroke="black" points="786.31,-2034.54 787.96,-2024.07 780.14,-2031.22 786.31,-2034.54"/>
</g>
<!-- 2256959730016&#45;&gt;2256959732800 -->
<g id="edge24" class="edge">
<title>2256959730016&#45;&gt;2256959732800</title>
<path fill="none" stroke="black" d="M843,-567.97C843,-551.76 843,-527.06 843,-507.79"/>
<polygon fill="black" stroke="black" points="846.5,-507.85 843,-497.85 839.5,-507.85 846.5,-507.85"/>
</g>
<!-- 2256959730064 -->
<g id="node28" class="node">
<title>2256959730064</title>
<polygon fill="#f7f7f7" stroke="black" points="899.5,-1144 520.5,-1144 520.5,-1108 899.5,-1108 899.5,-1144"/>
<text xml:space="preserve" text-anchor="start" x="528.5" y="-1119.4" font-family="Times New Roman,serif" font-size="18.00">are be be be be data is processed results statistical</text>
</g>
<!-- 2256959730112&#45;&gt;2256959730064 -->
<g id="edge25" class="edge">
<title>2256959730112&#45;&gt;2256959730064</title>
<path fill="none" stroke="black" d="M710,-1215.97C710,-1199.76 710,-1175.06 710,-1155.79"/>
<polygon fill="black" stroke="black" points="713.5,-1155.85 710,-1145.85 706.5,-1155.85 713.5,-1155.85"/>
</g>
<!-- 2256959730400 -->
<g id="node20" class="node">
<title>2256959730400</title>
<polygon fill="#f7f7f7" stroke="black" points="1026.88,-1914.4 713.12,-1914.4 713.12,-1878.4 1026.88,-1878.4 1026.88,-1914.4"/>
<text xml:space="preserve" text-anchor="start" x="721.12" y="-1889.8" font-family="Times New Roman,serif" font-size="18.00">3a5ebc97&#45;438f&#45;4e56&#45;ae92&#45;5fe7959f2143</text>
</g>
<!-- 2256959730160&#45;&gt;2256959730400 -->
<g id="edge26" class="edge">
<title>2256959730160&#45;&gt;2256959730400</title>
<path fill="none" stroke="black" d="M809.57,-1986.37C820.99,-1969.55 838.64,-1943.57 851.92,-1924.02"/>
<polygon fill="black" stroke="black" points="854.65,-1926.23 857.37,-1915.99 848.86,-1922.3 854.65,-1926.23"/>
</g>
<!-- 2256959730400&#45;&gt;2256959733232 -->
<g id="edge27" class="edge">
<title>2256959730400&#45;&gt;2256959733232</title>
<path fill="none" stroke="black" d="M923.47,-1878.01C980.47,-1859.48 1070.73,-1830.13 1131.6,-1810.34"/>
<polygon fill="black" stroke="black" points="1132.37,-1813.77 1140.79,-1807.35 1130.2,-1807.11 1132.37,-1813.77"/>
</g>
<!-- anchor_cluster_2256959729440 -->
<!-- 2256959730400&#45;&gt;anchor_cluster_2256959729440 -->
<g id="edge28" class="edge">
<title>2256959730400&#45;&gt;anchor_cluster_2256959729440</title>
<path fill="none" stroke="black" d="M870,-1877.96C870,-1846.2 870,-1777.78 870,-1729.81"/>
<polygon fill="black" stroke="black" points="873.5,-1729.91 870,-1719.91 866.5,-1729.91 873.5,-1729.91"/>
</g>
<!-- anchor_cluster_2256959729440&#45;&gt;2256955112032 -->
<g id="edge29" class="edge">
<title>anchor_cluster_2256959729440&#45;&gt;2256955112032</title>
<path fill="none" stroke="black" d="M850,-1626.87C811.72,-1565.9 754.08,-1512.43 718.86,-1482.8"/>
<polygon fill="black" stroke="black" points="721.29,-1480.26 711.36,-1476.57 716.82,-1485.65 721.29,-1480.26"/>
</g>
<!-- 2256959729584 -->
<g id="node22" class="node">
<title>2256959729584</title>
<polygon fill="#f2f2f2" stroke="black" points="1260.12,-1694.8 941.88,-1694.8 941.88,-1658.8 1260.12,-1658.8 1260.12,-1694.8"/>
<text xml:space="preserve" text-anchor="start" x="949.88" y="-1670.2" font-family="Times New Roman,serif" font-size="18.00">a698d49e&#45;b23f&#45;428d&#45;9054&#45;d2e7a47f196a</text>
</g>
<!-- 2256959729872 -->
<g id="node24" class="node">
<title>2256959729872</title>
<polygon fill="#f2f2f2" stroke="black" points="1376.25,-1583.2 1157.75,-1583.2 1157.75,-1547.2 1376.25,-1547.2 1376.25,-1583.2"/>
<text xml:space="preserve" text-anchor="start" x="1165.75" y="-1558.6" font-family="Times New Roman,serif" font-size="18.00">is per per relevant shipment</text>
</g>
<!-- 2256959729584&#45;&gt;2256959729872 -->
<g id="edge1" class="edge">
<title>2256959729584&#45;&gt;2256959729872</title>
<path fill="none" stroke="navy" stroke-dasharray="5,2" d="M1127.3,-1658.43C1155.39,-1639.89 1200.07,-1610.39 1231.31,-1589.76"/>
<polygon fill="navy" stroke="navy" points="1232.87,-1592.93 1239.28,-1584.5 1229.01,-1587.09 1232.87,-1592.93"/>
</g>
<!-- 2256959729248 -->
<g id="node23" class="node">
<title>2256959729248</title>
<polygon fill="#f2f2f2" stroke="black" points="1341.62,-1475.2 936.38,-1475.2 936.38,-1439.2 1341.62,-1439.2 1341.62,-1475.2"/>
<text xml:space="preserve" text-anchor="start" x="944.38" y="-1450.6" font-family="Times New Roman,serif" font-size="18.00">be bom cost created in must order out processing wbs</text>
</g>
<!-- 2256959729248&#45;&gt;2256959729584 -->
<g id="edge2" class="edge">
<title>2256959729248&#45;&gt;2256959729584</title>
<path fill="none" stroke="navy" stroke-dasharray="5,2" d="M1135.54,-1475.57C1132,-1493.49 1126.42,-1522.26 1122,-1547.2 1115.94,-1581.43 1109.59,-1620.9 1105.48,-1646.99"/>
<polygon fill="navy" stroke="navy" points="1102.03,-1646.39 1103.94,-1656.81 1108.95,-1647.47 1102.03,-1646.39"/>
</g>
<!-- 2256959729104 -->
<g id="node26" class="node">
<title>2256959729104</title>
<polygon fill="none" stroke="navy" points="1139,-1367.2 1117.4,-1345.6 1139,-1324 1160.6,-1345.6 1139,-1367.2"/>
<g transform="translate(1117.4,-1367.2) scale(0.014385614385614387,0.014545454545454547)">

<g transform="translate(0.000000,2970.000000) scale(0.100000,-0.100000)"
fill="navy" stroke="none">
<path d="M10727 19133 l-587 -588 1847 -1847 1848 -1848 -1848 -1848 -1847
-1847 587 -588 588 -587 1847 1847 1848 1848 1848 -1848 1847 -1847 588 587
587 588 -1847 1847 -1848 1848 1848 1848 1847 1847 -587 588 -588 587 -1847
-1847 -1848 -1848 -1848 1848 -1847 1847 -588 -587z"/>
</g>
</g>
</g>
<!-- 2256959729248&#45;&gt;2256959729104 -->
<g id="edge3" class="edge">
<title>2256959729248&#45;&gt;2256959729104</title>
<path fill="none" stroke="navy" stroke-dasharray="5,2" d="M1139,-1439.07C1139,-1423.05 1139,-1398.68 1139,-1378.98"/>
<polygon fill="navy" stroke="navy" points="1142.5,-1379.25 1139,-1369.25 1135.5,-1379.25 1142.5,-1379.25"/>
</g>
<!-- 2256959729872&#45;&gt;2256959729248 -->
<g id="edge4" class="edge">
<title>2256959729872&#45;&gt;2256959729248</title>
<path fill="none" stroke="navy" stroke-dasharray="5,2" d="M1246.15,-1546.93C1225.04,-1529.45 1192.22,-1502.27 1168.46,-1482.6"/>
<polygon fill="navy" stroke="navy" points="1170.94,-1480.11 1161.01,-1476.42 1166.48,-1485.5 1170.94,-1480.11"/>
</g>
<!-- 2256959729488 -->
<g id="node25" class="node">
<title>2256959729488</title>
<polygon fill="none" stroke="navy" points="1354,-1698.4 1332.4,-1676.8 1354,-1655.2 1375.6,-1676.8 1354,-1698.4"/>
<g transform="translate(1332.4,-1698.4) scale(0.014385614385614387,0.014545454545454547)">

<g transform="translate(0.000000,2970.000000) scale(0.100000,-0.100000)"
fill="navy" stroke="none">
<path d="M10727 19133 l-587 -588 1847 -1847 1848 -1848 -1848 -1848 -1847
-1847 587 -588 588 -587 1847 1847 1848 1848 1848 -1848 1847 -1847 588 587
587 588 -1847 1847 -1848 1848 1848 1848 1847 1847 -587 588 -588 587 -1847
-1847 -1848 -1848 -1848 1848 -1847 1847 -588 -587z"/>
</g>
</g>
</g>
<!-- 2256959729488&#45;&gt;2256959729872 -->
<g id="edge5" class="edge">
<title>2256959729488&#45;&gt;2256959729872</title>
<path fill="none" stroke="navy" stroke-dasharray="5,2" d="M1344.69,-1664.07C1331.21,-1647.08 1305.88,-1615.18 1287.81,-1592.42"/>
<polygon fill="navy" stroke="navy" points="1290.7,-1590.43 1281.74,-1584.77 1285.22,-1594.78 1290.7,-1590.43"/>
</g>
<!-- 2256959452256&#45;&gt;2256955101616 -->
<g id="edge30" class="edge">
<title>2256959452256&#45;&gt;2256955101616</title>
<path fill="none" stroke="black" d="M869.74,-351.61C942.7,-332.89 1058.67,-303.12 1135.8,-283.33"/>
<polygon fill="black" stroke="black" points="1136.6,-286.74 1145.42,-280.86 1134.86,-279.95 1136.6,-286.74"/>
</g>
<!-- 2256959730064&#45;&gt;2256959730304 -->
<g id="edge31" class="edge">
<title>2256959730064&#45;&gt;2256959730304</title>
<path fill="none" stroke="black" d="M710,-1107.97C710,-1091.76 710,-1067.06 710,-1047.79"/>
<polygon fill="black" stroke="black" points="713.5,-1047.85 710,-1037.85 706.5,-1047.85 713.5,-1047.85"/>
</g>
<!-- 2256959729920&#45;&gt;2256959730352 -->
<g id="edge32" class="edge">
<title>2256959729920&#45;&gt;2256959730352</title>
<path fill="none" stroke="black" d="M710.78,-2202.37C716.37,-2185.93 724.92,-2160.75 731.5,-2141.37"/>
<polygon fill="black" stroke="black" points="734.72,-2142.77 734.62,-2132.17 728.09,-2140.52 734.72,-2142.77"/>
</g>
</g>
</svg>
