<?xml version="1.0" encoding="UTF-8" standalone="no"?>
<!DOCTYPE svg PUBLIC "-//W3C//DTD SVG 1.1//EN"
 "http://www.w3.org/Graphics/SVG/1.1/DTD/svg11.dtd">
<!-- Generated by graphviz version 14.0.5 (20251129.0259)
 -->
<!-- Title: powl Pages: 1 -->
<svg width="1341pt" height="1483pt"
 viewBox="0.00 0.00 1341.00 1483.00" xmlns="http://www.w3.org/2000/svg" xmlns:xlink="http://www.w3.org/1999/xlink">
<g id="graph0" class="graph" transform="scale(1 1) rotate(0) translate(4 1478.8)">
<title>powl</title>
<polygon fill="white" stroke="none" points="-4,4 -4,-1478.8 1337,-1478.8 1337,4 -4,4"/>
<g id="clust1" class="cluster">
<title>cluster_2256959453696</title>
<polygon fill="#fcfcfc" stroke="black" points="8,-8 8,-1466.8 1325,-1466.8 1325,-8 8,-8"/>
</g>
<g id="clust2" class="cluster">
<title>cluster_2256959743472</title>
<polygon fill="#f7f7f7" stroke="black" points="28,-979.4 28,-1285.8 965,-1285.8 965,-979.4 28,-979.4"/>
</g>
<g id="clust3" class="cluster">
<title>cluster_2256957783536</title>
<polygon fill="#f7f7f7" stroke="black" points="178,-28 178,-442.4 880,-442.4 880,-28 178,-28"/>
</g>
<!-- anchor_cluster_2256959453696 -->
<!-- 2256959746064 -->
<g id="node2" class="node">
<title>2256959746064</title>
<polygon fill="#f7f7f7" stroke="black" points="1292.12,-927.4 967.88,-927.4 967.88,-891.4 1292.12,-891.4 1292.12,-927.4"/>
<text xml:space="preserve" text-anchor="start" x="975.88" y="-902.8" font-family="Times New Roman,serif" font-size="18.00">arisen cost for must operative requirement</text>
</g>
<!-- 2256957768512 -->
<g id="node7" class="node">
<title>2256957768512</title>
<polygon fill="#f7f7f7" stroke="black" points="1139.38,-819.4 852.62,-819.4 852.62,-783.4 1139.38,-783.4 1139.38,-819.4"/>
<text xml:space="preserve" text-anchor="start" x="860.62" y="-794.8" font-family="Times New Roman,serif" font-size="18.00">be be charge document free free is of</text>
</g>
<!-- 2256959746064&#45;&gt;2256957768512 -->
<g id="edge11" class="edge">
<title>2256959746064&#45;&gt;2256957768512</title>
<path fill="none" stroke="black" d="M1108.17,-891.13C1086.08,-873.65 1051.71,-846.47 1026.84,-826.8"/>
<polygon fill="black" stroke="black" points="1029.02,-824.06 1019.01,-820.6 1024.68,-829.55 1029.02,-824.06"/>
</g>
<!-- 2256955611536 -->
<g id="node3" class="node">
<title>2256955611536</title>
<polygon fill="#f7f7f7" stroke="black" points="1152.12,-711.4 815.88,-711.4 815.88,-675.4 1152.12,-675.4 1152.12,-711.4"/>
<text xml:space="preserve" text-anchor="start" x="823.88" y="-686.8" font-family="Times New Roman,serif" font-size="18.00">be created measurement requirements using</text>
</g>
<!-- 2256957768608 -->
<g id="node6" class="node">
<title>2256957768608</title>
<polygon fill="#f7f7f7" stroke="black" points="1076.5,-603.4 757.5,-603.4 757.5,-567.4 1076.5,-567.4 1076.5,-603.4"/>
<text xml:space="preserve" text-anchor="start" x="765.5" y="-578.8" font-family="Times New Roman,serif" font-size="18.00">be certificate item per shipment specified</text>
</g>
<!-- 2256955611536&#45;&gt;2256957768608 -->
<g id="edge12" class="edge">
<title>2256955611536&#45;&gt;2256957768608</title>
<path fill="none" stroke="black" d="M973.24,-675.37C962.65,-658.62 946.33,-632.81 934,-613.29"/>
<polygon fill="black" stroke="black" points="937.07,-611.6 928.77,-605.02 931.15,-615.34 937.07,-611.6"/>
</g>
<!-- 2256955620464 -->
<g id="node4" class="node">
<title>2256955620464</title>
<polygon fill="#f7f7f7" stroke="black" points="1304.75,-199.2 915.25,-199.2 915.25,-163.2 1304.75,-163.2 1304.75,-199.2"/>
<text xml:space="preserve" text-anchor="start" x="923.25" y="-174.6" font-family="Times New Roman,serif" font-size="18.00">activated defects from notification program quality</text>
</g>
<!-- 2256955608032 -->
<g id="node5" class="node">
<title>2256955608032</title>
<polygon fill="#f7f7f7" stroke="black" points="1304.5,-1039 985.5,-1039 985.5,-1003 1304.5,-1003 1304.5,-1039"/>
<text xml:space="preserve" text-anchor="start" x="993.5" y="-1014.4" font-family="Times New Roman,serif" font-size="18.00">be campaign numbers out processed sales</text>
</g>
<!-- 2256955608032&#45;&gt;2256959746064 -->
<g id="edge13" class="edge">
<title>2256955608032&#45;&gt;2256959746064</title>
<path fill="none" stroke="black" d="M1142.66,-1002.88C1140.33,-985.84 1136.71,-959.4 1133.93,-939.15"/>
<polygon fill="black" stroke="black" points="1137.41,-938.7 1132.58,-929.27 1130.47,-939.65 1137.41,-938.7"/>
</g>
<!-- anchor_cluster_2256957783536 -->
<!-- 2256957768608&#45;&gt;anchor_cluster_2256957783536 -->
<g id="edge14" class="edge">
<title>2256957768608&#45;&gt;anchor_cluster_2256957783536</title>
<path fill="none" stroke="black" d="M911.64,-567.22C903.58,-541.42 888.03,-491.6 876.09,-453.35"/>
<polygon fill="black" stroke="black" points="879.45,-452.35 873.12,-443.84 872.76,-454.43 879.45,-452.35"/>
</g>
<!-- 2256957768512&#45;&gt;2256955611536 -->
<g id="edge15" class="edge">
<title>2256957768512&#45;&gt;2256955611536</title>
<path fill="none" stroke="black" d="M994.07,-783.37C992.23,-767.09 989.41,-742.22 987.23,-722.92"/>
<polygon fill="black" stroke="black" points="990.74,-722.79 986.13,-713.24 983.78,-723.57 990.74,-722.79"/>
</g>
<!-- 2256957782336 -->
<g id="node8" class="node">
<title>2256957782336</title>
<polygon fill="#f7f7f7" stroke="black" points="1085.75,-1446.8 804.25,-1446.8 804.25,-1410.8 1085.75,-1410.8 1085.75,-1446.8"/>
<text xml:space="preserve" text-anchor="start" x="812.25" y="-1422.2" font-family="Times New Roman,serif" font-size="18.00">contract created document master to</text>
</g>
<!-- anchor_cluster_2256959743472 -->
<!-- 2256957782336&#45;&gt;anchor_cluster_2256959743472 -->
<g id="edge16" class="edge">
<title>2256957782336&#45;&gt;anchor_cluster_2256959743472</title>
<path fill="none" stroke="black" d="M945,-1410.62C945,-1384.93 945,-1335.43 945,-1297.25"/>
<polygon fill="black" stroke="black" points="948.5,-1297.31 945,-1287.31 941.5,-1297.31 948.5,-1297.31"/>
</g>
<!-- anchor_cluster_2256959743472&#45;&gt;2256955608032 -->
<g id="edge17" class="edge">
<title>anchor_cluster_2256959743472&#45;&gt;2256955608032</title>
<path fill="none" stroke="black" d="M965,-1221.08C1002.27,-1179.86 1082.16,-1091.5 1121.76,-1047.7"/>
<polygon fill="black" stroke="black" points="1124.31,-1050.1 1128.42,-1040.34 1119.12,-1045.41 1124.31,-1050.1"/>
</g>
<!-- 2256957772016 -->
<g id="node10" class="node">
<title>2256957772016</title>
<polygon fill="#f2f2f2" stroke="black" points="367.5,-1150.6 48.5,-1150.6 48.5,-1114.6 367.5,-1114.6 367.5,-1150.6"/>
<text xml:space="preserve" text-anchor="start" x="56.5" y="-1126" font-family="Times New Roman,serif" font-size="18.00">be campaign numbers out processed sales</text>
</g>
<!-- 2256957779840 -->
<g id="node13" class="node">
<title>2256957779840</title>
<polygon fill="none" stroke="navy" points="450,-1042.6 428.4,-1021 450,-999.4 471.6,-1021 450,-1042.6"/>
<g transform="translate(428.4,-1042.6) scale(0.014385614385614387,0.014545454545454547)">

<g transform="translate(0.000000,2970.000000) scale(0.100000,-0.100000)"
fill="navy" stroke="none">
<path d="M10727 19133 l-587 -588 1847 -1847 1848 -1848 -1848 -1848 -1847
-1847 587 -588 588 -587 1847 1847 1848 1848 1848 -1848 1847 -1847 588 587
587 588 -1847 1847 -1848 1848 1848 1848 1847 1847 -587 588 -588 587 -1847
-1847 -1848 -1848 -1848 1848 -1847 1847 -588 -587z"/>
</g>
</g>
</g>
<!-- 2256957772016&#45;&gt;2256957779840 -->
<g id="edge1" class="edge">
<title>2256957772016&#45;&gt;2256957779840</title>
<path fill="none" stroke="navy" stroke-dasharray="5,2" d="M246.61,-1114.11C296.73,-1091.41 382.76,-1052.45 425.05,-1033.3"/>
<polygon fill="navy" stroke="navy" points="426.47,-1036.5 434.14,-1029.18 423.58,-1030.12 426.47,-1036.5"/>
</g>
<!-- 2256957770480 -->
<g id="node11" class="node">
<title>2256957770480</title>
<polygon fill="#f2f2f2" stroke="black" points="944.88,-1150.6 439.12,-1150.6 439.12,-1114.6 944.88,-1114.6 944.88,-1150.6"/>
<text xml:space="preserve" text-anchor="start" x="447.12" y="-1126" font-family="Times New Roman,serif" font-size="18.00">carried center center cost hierarchy product profitability settlement</text>
</g>
<!-- 2256957770480&#45;&gt;2256957779840 -->
<g id="edge2" class="edge">
<title>2256957770480&#45;&gt;2256957779840</title>
<path fill="none" stroke="navy" stroke-dasharray="5,2" d="M638.11,-1114.13C593.18,-1098.48 528.3,-1073.28 476,-1042.6 474.06,-1041.46 472.11,-1040.2 470.2,-1038.86"/>
<polygon fill="navy" stroke="navy" points="472.43,-1036.16 462.35,-1032.88 468.18,-1041.72 472.43,-1036.16"/>
</g>
<!-- 2256957769760 -->
<g id="node12" class="node">
<title>2256957769760</title>
<polygon fill="none" stroke="navy" points="450,-1265.8 428.4,-1244.2 450,-1222.6 471.6,-1244.2 450,-1265.8"/>
<g transform="translate(428.4,-1265.8) scale(0.014385614385614387,0.014545454545454547)">

<g transform="translate(0.000000,2970.000000) scale(0.100000,-0.100000)"
fill="navy" stroke="none">
<path d="M10727 19133 l-587 -588 1847 -1847 1848 -1848 -1848 -1848 -1847
-1847 587 -588 588 -587 1847 1847 1848 1848 1848 -1848 1847 -1847 588 587
587 588 -1847 1847 -1848 1848 1848 1848 1847 1847 -587 588 -588 587 -1847
-1847 -1848 -1848 -1848 1848 -1847 1847 -588 -587z"/>
</g>
</g>
</g>
<!-- 2256957769760&#45;&gt;2256957772016 -->
<g id="edge3" class="edge">
<title>2256957769760&#45;&gt;2256957772016</title>
<path fill="none" stroke="navy" stroke-dasharray="5,2" d="M435.59,-1236.67C401.17,-1221.09 312.92,-1181.12 256.97,-1155.78"/>
<polygon fill="navy" stroke="navy" points="258.51,-1152.63 247.96,-1151.7 255.62,-1159.01 258.51,-1152.63"/>
</g>
<!-- 2256957769760&#45;&gt;2256957770480 -->
<g id="edge4" class="edge">
<title>2256957769760&#45;&gt;2256957770480</title>
<path fill="none" stroke="navy" stroke-dasharray="5,2" d="M464.41,-1236.67C498.83,-1221.09 587.08,-1181.12 643.03,-1155.78"/>
<polygon fill="navy" stroke="navy" points="644.38,-1159.01 652.04,-1151.7 641.49,-1152.63 644.38,-1159.01"/>
</g>
<!-- anchor_cluster_2256957783536&#45;&gt;2256955620464 -->
<g id="edge18" class="edge">
<title>anchor_cluster_2256957783536&#45;&gt;2256955620464</title>
<path fill="none" stroke="black" d="M880,-382.39C924.27,-343.86 1030.67,-251.25 1081.73,-206.81"/>
<polygon fill="black" stroke="black" points="1083.87,-209.58 1089.11,-200.38 1079.27,-204.3 1083.87,-209.58"/>
</g>
<!-- 2256957781760 -->
<g id="node15" class="node">
<title>2256957781760</title>
<polygon fill="#f2f2f2" stroke="black" points="843.5,-199.2 536.5,-199.2 536.5,-163.2 843.5,-163.2 843.5,-199.2"/>
<text xml:space="preserve" text-anchor="start" x="544.5" y="-174.6" font-family="Times New Roman,serif" font-size="18.00">analysis performed profitability transfer</text>
</g>
<!-- 2256957775904 -->
<g id="node20" class="node">
<title>2256957775904</title>
<polygon fill="none" stroke="navy" points="528,-91.2 506.4,-69.6 528,-48 549.6,-69.6 528,-91.2"/>
<g transform="translate(506.4,-91.2) scale(0.014385614385614387,0.014545454545454547)">

<g transform="translate(0.000000,2970.000000) scale(0.100000,-0.100000)"
fill="navy" stroke="none">
<path d="M10727 19133 l-587 -588 1847 -1847 1848 -1848 -1848 -1848 -1847
-1847 587 -588 588 -587 1847 1847 1848 1848 1848 -1848 1847 -1847 588 587
587 588 -1847 1847 -1848 1848 1848 1848 1847 1847 -587 588 -588 587 -1847
-1847 -1848 -1848 -1848 1848 -1847 1847 -588 -587z"/>
</g>
</g>
</g>
<!-- 2256957781760&#45;&gt;2256957775904 -->
<g id="edge5" class="edge">
<title>2256957781760&#45;&gt;2256957775904</title>
<path fill="none" stroke="navy" stroke-dasharray="5,2" d="M664.33,-162.83C632.73,-141.45 579.6,-105.51 549.85,-85.38"/>
<polygon fill="navy" stroke="navy" points="551.88,-82.53 541.64,-79.83 547.96,-88.33 551.88,-82.53"/>
</g>
<!-- 2256957780848 -->
<g id="node16" class="node">
<title>2256957780848</title>
<polygon fill="#f2f2f2" stroke="black" points="563.75,-307.2 198.25,-307.2 198.25,-271.2 563.75,-271.2 563.75,-307.2"/>
<text xml:space="preserve" text-anchor="start" x="206.25" y="-282.6" font-family="Times New Roman,serif" font-size="18.00">be be credit is is leveling performed planning to</text>
</g>
<!-- 2256957779552 -->
<g id="node17" class="node">
<title>2256957779552</title>
<polygon fill="#f2f2f2" stroke="black" points="464.38,-199.2 267.62,-199.2 267.62,-163.2 464.38,-163.2 464.38,-199.2"/>
<text xml:space="preserve" text-anchor="start" x="275.62" y="-174.6" font-family="Times New Roman,serif" font-size="18.00">account planning project</text>
</g>
<!-- 2256957780848&#45;&gt;2256957779552 -->
<g id="edge6" class="edge">
<title>2256957780848&#45;&gt;2256957779552</title>
<path fill="none" stroke="navy" stroke-dasharray="5,2" d="M378.59,-271.17C376.29,-254.89 372.77,-230.02 370.04,-210.72"/>
<polygon fill="navy" stroke="navy" points="373.53,-210.45 368.67,-201.04 366.6,-211.43 373.53,-210.45"/>
</g>
<!-- 2256957779552&#45;&gt;2256957775904 -->
<g id="edge7" class="edge">
<title>2256957779552&#45;&gt;2256957775904</title>
<path fill="none" stroke="navy" stroke-dasharray="5,2" d="M391.67,-162.83C423.27,-141.45 476.4,-105.51 506.15,-85.38"/>
<polygon fill="navy" stroke="navy" points="508.04,-88.33 514.36,-79.83 504.12,-82.53 508.04,-88.33"/>
</g>
<!-- 2256957775424 -->
<g id="node18" class="node">
<title>2256957775424</title>
<polygon fill="#f2f2f2" stroke="black" points="860.25,-307.2 635.75,-307.2 635.75,-271.2 860.25,-271.2 860.25,-307.2"/>
<text xml:space="preserve" text-anchor="start" x="643.75" y="-282.6" font-family="Times New Roman,serif" font-size="18.00">cost cost overhead recording</text>
</g>
<!-- 2256957775424&#45;&gt;2256957781760 -->
<g id="edge8" class="edge">
<title>2256957775424&#45;&gt;2256957781760</title>
<path fill="none" stroke="navy" stroke-dasharray="5,2" d="M738.68,-271.17C729.6,-254.58 715.65,-229.08 705.01,-209.63"/>
<polygon fill="navy" stroke="navy" points="708.09,-207.96 700.21,-200.87 701.94,-211.32 708.09,-207.96"/>
</g>
<!-- 2256957780944 -->
<g id="node19" class="node">
<title>2256957780944</title>
<polygon fill="none" stroke="navy" points="564,-422.4 542.4,-400.8 564,-379.2 585.6,-400.8 564,-422.4"/>
<g transform="translate(542.4,-422.4) scale(0.014385614385614387,0.014545454545454547)">

<g transform="translate(0.000000,2970.000000) scale(0.100000,-0.100000)"
fill="navy" stroke="none">
<path d="M10727 19133 l-587 -588 1847 -1847 1848 -1848 -1848 -1848 -1847
-1847 587 -588 588 -587 1847 1847 1848 1848 1848 -1848 1847 -1847 588 587
587 588 -1847 1847 -1848 1848 1848 1848 1847 1847 -587 588 -588 587 -1847
-1847 -1848 -1848 -1848 1848 -1847 1847 -588 -587z"/>
</g>
</g>
</g>
<!-- 2256957780944&#45;&gt;2256957780848 -->
<g id="edge9" class="edge">
<title>2256957780944&#45;&gt;2256957780848</title>
<path fill="none" stroke="navy" stroke-dasharray="5,2" d="M550.84,-391.92C523.73,-375.68 460.78,-337.98 419.6,-313.32"/>
<polygon fill="navy" stroke="navy" points="421.57,-310.42 411.19,-308.28 417.97,-316.42 421.57,-310.42"/>
</g>
<!-- 2256957780944&#45;&gt;2256957775424 -->
<g id="edge10" class="edge">
<title>2256957780944&#45;&gt;2256957775424</title>
<path fill="none" stroke="navy" stroke-dasharray="5,2" d="M577.23,-391.92C604.49,-375.68 667.78,-337.98 709.19,-313.32"/>
<polygon fill="navy" stroke="navy" points="710.85,-316.4 717.65,-308.28 707.27,-310.39 710.85,-316.4"/>
</g>
</g>
</svg>
