<?xml version="1.0" encoding="UTF-8" standalone="no"?>
<!DOCTYPE svg PUBLIC "-//W3C//DTD SVG 1.1//EN"
 "http://www.w3.org/Graphics/SVG/1.1/DTD/svg11.dtd">
<!-- Generated by graphviz version 14.0.5 (20251129.0259)
 -->
<!-- Title: pt Pages: 1 -->
<svg width="561pt" height="260pt"
 viewBox="0.00 0.00 561.00 260.00" xmlns="http://www.w3.org/2000/svg" xmlns:xlink="http://www.w3.org/1999/xlink">
<g id="graph0" class="graph" transform="scale(1 1) rotate(0) translate(4 256)">
<title>pt</title>
<polygon fill="white" stroke="none" points="-4,4 -4,-256 557.33,-256 557.33,4 -4,4"/>
<!-- 2256955106800 -->
<g id="node1" class="node">
<title>2256955106800</title>
<ellipse fill="none" stroke="black" cx="27" cy="-126" rx="27" ry="18"/>
<text xml:space="preserve" text-anchor="middle" x="27" y="-120.38" font-family="Times New Roman,serif" font-size="15.00">seq</text>
</g>
<!-- 2256955109536 -->
<g id="node2" class="node">
<title>2256955109536</title>
<ellipse fill="none" stroke="black" cx="321.66" cy="-234" rx="199.04" ry="18"/>
<text xml:space="preserve" text-anchor="middle" x="321.66" y="-228.38" font-family="Times New Roman,serif" font-size="15.00">and assignment carried company settlement</text>
</g>
<!-- 2256955106800&#45;&#45;2256955109536 -->
<g id="edge1" class="edge">
<title>2256955106800&#45;&#45;2256955109536</title>
<path fill="none" stroke="black" d="M50.96,-134.47C98.46,-152 208.4,-192.57 272.28,-216.15"/>
</g>
<!-- 2256955107616 -->
<g id="node3" class="node">
<title>2256955107616</title>
<ellipse fill="none" stroke="black" cx="321.66" cy="-180" rx="231.66" ry="18"/>
<text xml:space="preserve" text-anchor="middle" x="321.66" y="-174.38" font-family="Times New Roman,serif" font-size="15.00">budget consolidation despite plan plan processed to</text>
</g>
<!-- 2256955106800&#45;&#45;2256955107616 -->
<g id="edge2" class="edge">
<title>2256955106800&#45;&#45;2256955107616</title>
<path fill="none" stroke="black" d="M53.46,-130.7C92.19,-137.84 167.85,-151.8 228.8,-163.05"/>
</g>
<!-- 2256955108384 -->
<g id="node4" class="node">
<title>2256955108384</title>
<ellipse fill="none" stroke="black" cx="321.66" cy="-126" rx="136.44" ry="18"/>
<text xml:space="preserve" text-anchor="middle" x="321.66" y="-120.38" font-family="Times New Roman,serif" font-size="15.00">budget expenditure increased</text>
</g>
<!-- 2256955106800&#45;&#45;2256955108384 -->
<g id="edge3" class="edge">
<title>2256955106800&#45;&#45;2256955108384</title>
<path fill="none" stroke="black" d="M54.49,-126C84.46,-126 135.56,-126 185.02,-126"/>
</g>
<!-- 2256955105696 -->
<g id="node5" class="node">
<title>2256955105696</title>
<ellipse fill="none" stroke="black" cx="321.66" cy="-72" rx="136.44" ry="18"/>
<text xml:space="preserve" text-anchor="middle" x="321.66" y="-66.38" font-family="Times New Roman,serif" font-size="15.00">budget expenditure increased</text>
</g>
<!-- 2256955106800&#45;&#45;2256955105696 -->
<g id="edge4" class="edge">
<title>2256955106800&#45;&#45;2256955105696</title>
<path fill="none" stroke="black" d="M53.46,-121.3C94.69,-113.69 177.78,-98.36 240.42,-86.81"/>
</g>
<!-- 2256955108096 -->
<g id="node6" class="node">
<title>2256955108096</title>
<ellipse fill="none" stroke="black" cx="321.66" cy="-18" rx="191.15" ry="18"/>
<text xml:space="preserve" text-anchor="middle" x="321.66" y="-12.38" font-family="Times New Roman,serif" font-size="15.00">be bottom budget for need prepare release</text>
</g>
<!-- 2256955106800&#45;&#45;2256955108096 -->
<g id="edge5" class="edge">
<title>2256955106800&#45;&#45;2256955108096</title>
<path fill="none" stroke="black" d="M50.96,-117.53C98.46,-100 208.4,-59.43 272.28,-35.85"/>
</g>
</g>
</svg>
