<?xml version="1.0" encoding="UTF-8" standalone="no"?>
<!DOCTYPE svg PUBLIC "-//W3C//DTD SVG 1.1//EN"
 "http://www.w3.org/Graphics/SVG/1.1/DTD/svg11.dtd">
<!-- Generated by graphviz version 14.0.5 (20251129.0259)
 -->
<!-- Title: pt Pages: 1 -->
<svg width="1132pt" height="422pt"
 viewBox="0.00 0.00 1132.00 422.00" xmlns="http://www.w3.org/2000/svg" xmlns:xlink="http://www.w3.org/1999/xlink">
<g id="graph0" class="graph" transform="scale(1 1) rotate(0) translate(4 418)">
<title>pt</title>
<polygon fill="white" stroke="none" points="-4,4 -4,-418 1127.71,-418 1127.71,4 -4,4"/>
<!-- 2256954630704 -->
<g id="node1" class="node">
<title>2256954630704</title>
<ellipse fill="none" stroke="black" cx="27" cy="-234" rx="27" ry="18"/>
<text xml:space="preserve" text-anchor="middle" x="27" y="-228.38" font-family="Times New Roman,serif" font-size="15.00">seq</text>
</g>
<!-- 2256954622256 -->
<g id="node2" class="node">
<title>2256954622256</title>
<ellipse fill="none" stroke="black" cx="284.84" cy="-369" rx="189.57" ry="18"/>
<text xml:space="preserve" text-anchor="middle" x="284.84" y="-363.38" font-family="Times New Roman,serif" font-size="15.00">1f4c951d&#45;e28d&#45;4037&#45;9e7e&#45;9ec4939b4755</text>
</g>
<!-- 2256954630704&#45;&#45;2256954622256 -->
<g id="edge1" class="edge">
<title>2256954630704&#45;&#45;2256954622256</title>
<path fill="none" stroke="black" d="M48.94,-245.05C92.97,-268.28 195.54,-322.41 249.41,-350.83"/>
</g>
<!-- 2256954635744 -->
<g id="node3" class="node">
<title>2256954635744</title>
<ellipse fill="none" stroke="black" cx="284.84" cy="-315" rx="191.15" ry="18"/>
<text xml:space="preserve" text-anchor="middle" x="284.84" y="-309.38" font-family="Times New Roman,serif" font-size="15.00">40d7b96c&#45;cdc3&#45;4b80&#45;975a&#45;90c312781a95</text>
</g>
<!-- 2256954630704&#45;&#45;2256954635744 -->
<g id="edge2" class="edge">
<title>2256954630704&#45;&#45;2256954635744</title>
<path fill="none" stroke="black" d="M51.61,-241.48C91.44,-254.09 173.02,-279.92 228.09,-297.35"/>
</g>
<!-- 2256954635456 -->
<g id="node4" class="node">
<title>2256954635456</title>
<ellipse fill="none" stroke="black" cx="284.84" cy="-261" rx="192.21" ry="18"/>
<text xml:space="preserve" text-anchor="middle" x="284.84" y="-255.38" font-family="Times New Roman,serif" font-size="15.00">8a09187d&#45;5370&#45;40b0&#45;934c&#45;b666d5ce9491</text>
</g>
<!-- 2256954630704&#45;&#45;2256954635456 -->
<g id="edge3" class="edge">
<title>2256954630704&#45;&#45;2256954635456</title>
<path fill="none" stroke="black" d="M53.94,-236.74C78.2,-239.3 116.36,-243.32 154.66,-247.37"/>
</g>
<!-- 2256954623840 -->
<g id="node5" class="node">
<title>2256954623840</title>
<ellipse fill="none" stroke="black" cx="284.84" cy="-207" rx="27" ry="18"/>
<text xml:space="preserve" text-anchor="middle" x="284.84" y="-201.38" font-family="Times New Roman,serif" font-size="15.00">and</text>
</g>
<!-- 2256954630704&#45;&#45;2256954623840 -->
<g id="edge16" class="edge">
<title>2256954630704&#45;&#45;2256954623840</title>
<path fill="none" stroke="black" d="M53.94,-231.26C102.97,-226.09 208.74,-214.93 257.83,-209.74"/>
</g>
<!-- 2256954624752 -->
<g id="node18" class="node">
<title>2256954624752</title>
<ellipse fill="none" stroke="black" cx="284.84" cy="-153" rx="192.21" ry="18"/>
<text xml:space="preserve" text-anchor="middle" x="284.84" y="-147.38" font-family="Times New Roman,serif" font-size="15.00">217b9bc5&#45;5791&#45;4d15&#45;8b00&#45;09d4f0074821</text>
</g>
<!-- 2256954630704&#45;&#45;2256954624752 -->
<g id="edge17" class="edge">
<title>2256954630704&#45;&#45;2256954624752</title>
<path fill="none" stroke="black" d="M51.61,-226.52C91.44,-213.91 173.02,-188.08 228.09,-170.65"/>
</g>
<!-- 2256954634160 -->
<g id="node19" class="node">
<title>2256954634160</title>
<ellipse fill="none" stroke="black" cx="284.84" cy="-99" rx="194.84" ry="18"/>
<text xml:space="preserve" text-anchor="middle" x="284.84" y="-93.38" font-family="Times New Roman,serif" font-size="15.00">data transferred to profit center accounting</text>
</g>
<!-- 2256954630704&#45;&#45;2256954634160 -->
<g id="edge18" class="edge">
<title>2256954630704&#45;&#45;2256954634160</title>
<path fill="none" stroke="black" d="M48.94,-222.95C92.97,-199.72 195.54,-145.59 249.41,-117.17"/>
</g>
<!-- 2256954633728 -->
<g id="node6" class="node">
<title>2256954633728</title>
<ellipse fill="none" stroke="black" cx="542.67" cy="-342" rx="27" ry="18"/>
<text xml:space="preserve" text-anchor="middle" x="542.67" y="-336.38" font-family="Times New Roman,serif" font-size="15.00">seq</text>
</g>
<!-- 2256954623840&#45;&#45;2256954633728 -->
<g id="edge6" class="edge">
<title>2256954623840&#45;&#45;2256954633728</title>
<path fill="none" stroke="black" d="M306.77,-218.05C354.87,-243.43 472.78,-305.65 520.81,-330.99"/>
</g>
<!-- 2256954634544 -->
<g id="node9" class="node">
<title>2256954634544</title>
<ellipse fill="none" stroke="black" cx="542.67" cy="-234" rx="27" ry="18"/>
<text xml:space="preserve" text-anchor="middle" x="542.67" y="-228.38" font-family="Times New Roman,serif" font-size="15.00">seq</text>
</g>
<!-- 2256954623840&#45;&#45;2256954634544 -->
<g id="edge9" class="edge">
<title>2256954623840&#45;&#45;2256954634544</title>
<path fill="none" stroke="black" d="M311.77,-209.74C360.81,-214.91 466.58,-226.07 515.66,-231.26"/>
</g>
<!-- 2256954622208 -->
<g id="node12" class="node">
<title>2256954622208</title>
<ellipse fill="none" stroke="black" cx="542.67" cy="-180" rx="27" ry="18"/>
<text xml:space="preserve" text-anchor="middle" x="542.67" y="-174.38" font-family="Times New Roman,serif" font-size="15.00">seq</text>
</g>
<!-- 2256954623840&#45;&#45;2256954622208 -->
<g id="edge12" class="edge">
<title>2256954623840&#45;&#45;2256954622208</title>
<path fill="none" stroke="black" d="M311.77,-204.26C360.81,-199.09 466.58,-187.93 515.66,-182.74"/>
</g>
<!-- 2256954633776 -->
<g id="node15" class="node">
<title>2256954633776</title>
<ellipse fill="none" stroke="black" cx="542.67" cy="-72" rx="27" ry="18"/>
<text xml:space="preserve" text-anchor="middle" x="542.67" y="-66.38" font-family="Times New Roman,serif" font-size="15.00">seq</text>
</g>
<!-- 2256954623840&#45;&#45;2256954633776 -->
<g id="edge15" class="edge">
<title>2256954623840&#45;&#45;2256954633776</title>
<path fill="none" stroke="black" d="M306.77,-195.95C354.87,-170.57 472.78,-108.35 520.81,-83.01"/>
</g>
<!-- 2256954629120 -->
<g id="node7" class="node">
<title>2256954629120</title>
<ellipse fill="none" stroke="black" cx="864.69" cy="-396" rx="259.02" ry="18"/>
<text xml:space="preserve" text-anchor="middle" x="864.69" y="-390.38" font-family="Times New Roman,serif" font-size="15.00">additional data is to be entered in profit center accounting</text>
</g>
<!-- 2256954633728&#45;&#45;2256954629120 -->
<g id="edge4" class="edge">
<title>2256954633728&#45;&#45;2256954629120</title>
<path fill="none" stroke="black" d="M569.32,-346.33C610.92,-353.35 695.3,-367.58 763.09,-379.02"/>
</g>
<!-- 2256954636896 -->
<g id="node8" class="node">
<title>2256954636896</title>
<ellipse fill="none" stroke="black" cx="864.69" cy="-342" rx="194.31" ry="18"/>
<text xml:space="preserve" text-anchor="middle" x="864.69" y="-336.38" font-family="Times New Roman,serif" font-size="15.00">document entry in profit center accounting</text>
</g>
<!-- 2256954633728&#45;&#45;2256954636896 -->
<g id="edge5" class="edge">
<title>2256954633728&#45;&#45;2256954636896</title>
<path fill="none" stroke="black" d="M570.13,-342C593.64,-342 630.34,-342 669.92,-342"/>
</g>
<!-- 2256954638096 -->
<g id="node10" class="node">
<title>2256954638096</title>
<ellipse fill="none" stroke="black" cx="864.69" cy="-288" rx="212.72" ry="18"/>
<text xml:space="preserve" text-anchor="middle" x="864.69" y="-282.38" font-family="Times New Roman,serif" font-size="15.00">additional manual key figures are to be entered</text>
</g>
<!-- 2256954634544&#45;&#45;2256954638096 -->
<g id="edge7" class="edge">
<title>2256954634544&#45;&#45;2256954638096</title>
<path fill="none" stroke="black" d="M569.32,-238.33C611.67,-245.47 698.32,-260.09 766.7,-271.63"/>
</g>
<!-- 2256954624368 -->
<g id="node11" class="node">
<title>2256954624368</title>
<ellipse fill="none" stroke="black" cx="864.69" cy="-234" rx="173.79" ry="18"/>
<text xml:space="preserve" text-anchor="middle" x="864.69" y="-228.38" font-family="Times New Roman,serif" font-size="15.00">manual entry of statistical key figures</text>
</g>
<!-- 2256954634544&#45;&#45;2256954624368 -->
<g id="edge8" class="edge">
<title>2256954634544&#45;&#45;2256954624368</title>
<path fill="none" stroke="black" d="M570.13,-234C597.69,-234 643.35,-234 690.55,-234"/>
</g>
<!-- 2256954631232 -->
<g id="node13" class="node">
<title>2256954631232</title>
<ellipse fill="none" stroke="black" cx="864.69" cy="-180" rx="229.56" ry="18"/>
<text xml:space="preserve" text-anchor="middle" x="864.69" y="-174.38" font-family="Times New Roman,serif" font-size="15.00">additional balance sheet items are to be transferred</text>
</g>
<!-- 2256954622208&#45;&#45;2256954631232 -->
<g id="edge10" class="edge">
<title>2256954622208&#45;&#45;2256954631232</title>
<path fill="none" stroke="black" d="M570.13,-180C586.46,-180 609.13,-180 634.72,-180"/>
</g>
<!-- 2256954632864 -->
<g id="node14" class="node">
<title>2256954632864</title>
<ellipse fill="none" stroke="black" cx="864.69" cy="-126" rx="256.92" ry="18"/>
<text xml:space="preserve" text-anchor="middle" x="864.69" y="-120.38" font-family="Times New Roman,serif" font-size="15.00">actual transfer of additional balance sheet items to ec pca</text>
</g>
<!-- 2256954622208&#45;&#45;2256954632864 -->
<g id="edge11" class="edge">
<title>2256954622208&#45;&#45;2256954632864</title>
<path fill="none" stroke="black" d="M569.32,-175.67C610.92,-168.65 695.3,-154.42 763.09,-142.98"/>
</g>
<!-- 2256954630080 -->
<g id="node16" class="node">
<title>2256954630080</title>
<ellipse fill="none" stroke="black" cx="864.69" cy="-72" rx="129.6" ry="18"/>
<text xml:space="preserve" text-anchor="middle" x="864.69" y="-66.38" font-family="Times New Roman,serif" font-size="15.00">plan data can be transferred</text>
</g>
<!-- 2256954633776&#45;&#45;2256954630080 -->
<g id="edge13" class="edge">
<title>2256954633776&#45;&#45;2256954630080</title>
<path fill="none" stroke="black" d="M570.13,-72C606.3,-72 673.66,-72 734.74,-72"/>
</g>
<!-- 2256954623264 -->
<g id="node17" class="node">
<title>2256954623264</title>
<ellipse fill="none" stroke="black" cx="864.69" cy="-18" rx="166.43" ry="18"/>
<text xml:space="preserve" text-anchor="middle" x="864.69" y="-12.38" font-family="Times New Roman,serif" font-size="15.00">actual data transfers on profit center</text>
</g>
<!-- 2256954633776&#45;&#45;2256954623264 -->
<g id="edge14" class="edge">
<title>2256954633776&#45;&#45;2256954623264</title>
<path fill="none" stroke="black" d="M569.32,-67.67C612.85,-60.33 703.21,-45.08 772.4,-33.4"/>
</g>
</g>
</svg>
