<?xml version="1.0" encoding="UTF-8" standalone="no"?>
<!DOCTYPE svg PUBLIC "-//W3C//DTD SVG 1.1//EN"
 "http://www.w3.org/Graphics/SVG/1.1/DTD/svg11.dtd">
<!-- Generated by graphviz version 14.0.5 (20251129.0259)
 -->
<!-- Title: pt Pages: 1 -->
<svg width="1508pt" height="584pt"
 viewBox="0.00 0.00 1508.00 584.00" xmlns="http://www.w3.org/2000/svg" xmlns:xlink="http://www.w3.org/1999/xlink">
<g id="graph0" class="graph" transform="scale(1 1) rotate(0) translate(4 580)">
<title>pt</title>
<polygon fill="white" stroke="none" points="-4,4 -4,-580 1503.95,-580 1503.95,4 -4,4"/>
<!-- 2256957830912 -->
<g id="node1" class="node">
<title>2256957830912</title>
<ellipse fill="none" stroke="black" cx="27" cy="-288" rx="27" ry="18"/>
<text xml:space="preserve" text-anchor="middle" x="27" y="-282.38" font-family="Times New Roman,serif" font-size="15.00">seq</text>
</g>
<!-- 2256957827600 -->
<g id="node2" class="node">
<title>2256957827600</title>
<ellipse fill="none" stroke="black" cx="281.15" cy="-558" rx="188.52" ry="18"/>
<text xml:space="preserve" text-anchor="middle" x="281.15" y="-552.38" font-family="Times New Roman,serif" font-size="15.00">e406df08&#45;ab24&#45;4c9a&#45;8614&#45;222ec9679acd</text>
</g>
<!-- 2256957830912&#45;&#45;2256957827600 -->
<g id="edge1" class="edge">
<title>2256957830912&#45;&#45;2256957827600</title>
<path fill="none" stroke="black" d="M42.28,-303.29C85.72,-349.81 216.19,-489.51 263.11,-539.75"/>
</g>
<!-- 2256957828848 -->
<g id="node3" class="node">
<title>2256957828848</title>
<ellipse fill="none" stroke="black" cx="281.15" cy="-504" rx="191.15" ry="18"/>
<text xml:space="preserve" text-anchor="middle" x="281.15" y="-498.38" font-family="Times New Roman,serif" font-size="15.00">7bd889b9&#45;6156&#45;4fbb&#45;84ce&#45;965c14193134</text>
</g>
<!-- 2256957830912&#45;&#45;2256957828848 -->
<g id="edge2" class="edge">
<title>2256957830912&#45;&#45;2256957828848</title>
<path fill="none" stroke="black" d="M44.54,-302.17C88.81,-340.09 209.91,-443.83 259.03,-485.91"/>
</g>
<!-- 2256957823136 -->
<g id="node4" class="node">
<title>2256957823136</title>
<ellipse fill="none" stroke="black" cx="281.15" cy="-450" rx="188" ry="18"/>
<text xml:space="preserve" text-anchor="middle" x="281.15" y="-444.38" font-family="Times New Roman,serif" font-size="15.00">a469bf31&#45;617b&#45;40e8&#45;a4fb&#45;e905dde95c78</text>
</g>
<!-- 2256957830912&#45;&#45;2256957823136 -->
<g id="edge3" class="edge">
<title>2256957830912&#45;&#45;2256957823136</title>
<path fill="none" stroke="black" d="M46.95,-300.18C90.93,-328.43 200.12,-398.58 251.96,-431.89"/>
</g>
<!-- 2256957818000 -->
<g id="node5" class="node">
<title>2256957818000</title>
<ellipse fill="none" stroke="black" cx="281.15" cy="-396" rx="27" ry="18"/>
<text xml:space="preserve" text-anchor="middle" x="281.15" y="-390.38" font-family="Times New Roman,serif" font-size="15.00">and</text>
</g>
<!-- 2256957830912&#45;&#45;2256957818000 -->
<g id="edge13" class="edge">
<title>2256957830912&#45;&#45;2256957818000</title>
<path fill="none" stroke="black" d="M50.38,-297.58C98.23,-318.08 210.02,-365.96 257.83,-386.44"/>
</g>
<!-- 2256957827312 -->
<g id="node15" class="node">
<title>2256957827312</title>
<ellipse fill="none" stroke="black" cx="281.15" cy="-342" rx="190.1" ry="18"/>
<text xml:space="preserve" text-anchor="middle" x="281.15" y="-336.38" font-family="Times New Roman,serif" font-size="15.00">1a87de88&#45;9886&#45;43a7&#45;ba52&#45;aa2ee0660050</text>
</g>
<!-- 2256957830912&#45;&#45;2256957827312 -->
<g id="edge14" class="edge">
<title>2256957830912&#45;&#45;2256957827312</title>
<path fill="none" stroke="black" d="M53.1,-293.38C87.48,-300.74 150.77,-314.29 201.82,-325.22"/>
</g>
<!-- 2256957822656 -->
<g id="node16" class="node">
<title>2256957822656</title>
<ellipse fill="none" stroke="black" cx="281.15" cy="-288" rx="107.5" ry="18"/>
<text xml:space="preserve" text-anchor="middle" x="281.15" y="-282.38" font-family="Times New Roman,serif" font-size="15.00">invoice list processing</text>
</g>
<!-- 2256957830912&#45;&#45;2256957822656 -->
<g id="edge15" class="edge">
<title>2256957830912&#45;&#45;2256957822656</title>
<path fill="none" stroke="black" d="M54.04,-288C82.35,-288 129.44,-288 173.35,-288"/>
</g>
<!-- 2256957826928 -->
<g id="node17" class="node">
<title>2256957826928</title>
<ellipse fill="none" stroke="black" cx="281.15" cy="-234" rx="190.1" ry="18"/>
<text xml:space="preserve" text-anchor="middle" x="281.15" y="-228.38" font-family="Times New Roman,serif" font-size="15.00">8bc880bf&#45;171c&#45;4946&#45;a725&#45;405913c9a032</text>
</g>
<!-- 2256957830912&#45;&#45;2256957826928 -->
<g id="edge16" class="edge">
<title>2256957830912&#45;&#45;2256957826928</title>
<path fill="none" stroke="black" d="M53.1,-282.62C87.48,-275.26 150.77,-261.71 201.82,-250.78"/>
</g>
<!-- 2256957824288 -->
<g id="node18" class="node">
<title>2256957824288</title>
<ellipse fill="none" stroke="black" cx="281.15" cy="-180" rx="27" ry="18"/>
<text xml:space="preserve" text-anchor="middle" x="281.15" y="-174.38" font-family="Times New Roman,serif" font-size="15.00">and</text>
</g>
<!-- 2256957830912&#45;&#45;2256957824288 -->
<g id="edge19" class="edge">
<title>2256957830912&#45;&#45;2256957824288</title>
<path fill="none" stroke="black" d="M50.38,-278.42C98.23,-257.92 210.02,-210.04 257.83,-189.56"/>
</g>
<!-- 2256957830624 -->
<g id="node21" class="node">
<title>2256957830624</title>
<ellipse fill="none" stroke="black" cx="281.15" cy="-126" rx="185.89" ry="18"/>
<text xml:space="preserve" text-anchor="middle" x="281.15" y="-120.38" font-family="Times New Roman,serif" font-size="15.00">d627bdc0&#45;9bbe&#45;4e9c&#45;9d2c&#45;50cf7fe09fb7</text>
</g>
<!-- 2256957830912&#45;&#45;2256957830624 -->
<g id="edge20" class="edge">
<title>2256957830912&#45;&#45;2256957830624</title>
<path fill="none" stroke="black" d="M46.95,-275.82C90.93,-247.57 200.12,-177.42 251.96,-144.11"/>
</g>
<!-- 2256957832448 -->
<g id="node22" class="node">
<title>2256957832448</title>
<ellipse fill="none" stroke="black" cx="281.15" cy="-72" rx="186.42" ry="18"/>
<text xml:space="preserve" text-anchor="middle" x="281.15" y="-66.38" font-family="Times New Roman,serif" font-size="15.00">2d2e631d&#45;affc&#45;4517&#45;ab23&#45;6f2e6b614218</text>
</g>
<!-- 2256957830912&#45;&#45;2256957832448 -->
<g id="edge21" class="edge">
<title>2256957830912&#45;&#45;2256957832448</title>
<path fill="none" stroke="black" d="M44.54,-273.83C88.81,-235.91 209.91,-132.17 259.03,-90.09"/>
</g>
<!-- 2256957824528 -->
<g id="node23" class="node">
<title>2256957824528</title>
<ellipse fill="none" stroke="black" cx="281.15" cy="-18" rx="188" ry="18"/>
<text xml:space="preserve" text-anchor="middle" x="281.15" y="-12.38" font-family="Times New Roman,serif" font-size="15.00">8284fb68&#45;594e&#45;4469&#45;9d51&#45;851bf2b10cfa</text>
</g>
<!-- 2256957830912&#45;&#45;2256957824528 -->
<g id="edge22" class="edge">
<title>2256957830912&#45;&#45;2256957824528</title>
<path fill="none" stroke="black" d="M42.28,-272.71C85.72,-226.19 216.19,-86.49 263.11,-36.25"/>
</g>
<!-- 2256957823520 -->
<g id="node6" class="node">
<title>2256957823520</title>
<ellipse fill="none" stroke="black" cx="637.9" cy="-423" rx="129.6" ry="18"/>
<text xml:space="preserve" text-anchor="middle" x="637.9" y="-417.38" font-family="Times New Roman,serif" font-size="15.00">invoice list date has arrived</text>
</g>
<!-- 2256957818000&#45;&#45;2256957823520 -->
<g id="edge4" class="edge">
<title>2256957818000&#45;&#45;2256957823520</title>
<path fill="none" stroke="black" d="M308.24,-397.99C353.04,-401.4 447.14,-408.56 523.21,-414.35"/>
</g>
<!-- 2256957828656 -->
<g id="node7" class="node">
<title>2256957828656</title>
<ellipse fill="none" stroke="black" cx="637.9" cy="-369" rx="27" ry="18"/>
<text xml:space="preserve" text-anchor="middle" x="637.9" y="-363.38" font-family="Times New Roman,serif" font-size="15.00">seq</text>
</g>
<!-- 2256957818000&#45;&#45;2256957828656 -->
<g id="edge12" class="edge">
<title>2256957818000&#45;&#45;2256957828656</title>
<path fill="none" stroke="black" d="M308.24,-394.01C373.84,-389.02 545.14,-375.98 610.78,-370.99"/>
</g>
<!-- 2256957816896 -->
<g id="node8" class="node">
<title>2256957816896</title>
<ellipse fill="none" stroke="black" cx="993.6" cy="-477" rx="190.1" ry="18"/>
<text xml:space="preserve" text-anchor="middle" x="993.6" y="-471.38" font-family="Times New Roman,serif" font-size="15.00">870daa87&#45;bcab&#45;4a00&#45;88ba&#45;ddec05272089</text>
</g>
<!-- 2256957828656&#45;&#45;2256957816896 -->
<g id="edge5" class="edge">
<title>2256957828656&#45;&#45;2256957816896</title>
<path fill="none" stroke="black" d="M662.94,-376.34C718.37,-393.26 856.44,-435.42 935.19,-459.47"/>
</g>
<!-- 2256957831728 -->
<g id="node9" class="node">
<title>2256957831728</title>
<ellipse fill="none" stroke="black" cx="993.6" cy="-423" rx="27" ry="18"/>
<text xml:space="preserve" text-anchor="middle" x="993.6" y="-417.38" font-family="Times New Roman,serif" font-size="15.00">and</text>
</g>
<!-- 2256957828656&#45;&#45;2256957831728 -->
<g id="edge8" class="edge">
<title>2256957828656&#45;&#45;2256957831728</title>
<path fill="none" stroke="black" d="M664.63,-372.93C729.96,-382.9 901.75,-409.13 966.98,-419.09"/>
</g>
<!-- 2256957825536 -->
<g id="node12" class="node">
<title>2256957825536</title>
<ellipse fill="none" stroke="black" cx="993.6" cy="-369" rx="189.57" ry="18"/>
<text xml:space="preserve" text-anchor="middle" x="993.6" y="-363.38" font-family="Times New Roman,serif" font-size="15.00">b5ea72d8&#45;b0c3&#45;4c95&#45;b3bc&#45;6013f860c266</text>
</g>
<!-- 2256957828656&#45;&#45;2256957825536 -->
<g id="edge9" class="edge">
<title>2256957828656&#45;&#45;2256957825536</title>
<path fill="none" stroke="black" d="M665.2,-369C695.78,-369 749.11,-369 803.95,-369"/>
</g>
<!-- 2256956011472 -->
<g id="node13" class="node">
<title>2256956011472</title>
<ellipse fill="none" stroke="black" cx="993.6" cy="-315" rx="136.96" ry="18"/>
<text xml:space="preserve" text-anchor="middle" x="993.6" y="-309.38" font-family="Times New Roman,serif" font-size="15.00">processing billing documents</text>
</g>
<!-- 2256957828656&#45;&#45;2256956011472 -->
<g id="edge10" class="edge">
<title>2256957828656&#45;&#45;2256956011472</title>
<path fill="none" stroke="black" d="M664.63,-365.07C713.83,-357.56 823.39,-340.83 902.36,-328.78"/>
</g>
<!-- 2256956006528 -->
<g id="node14" class="node">
<title>2256956006528</title>
<ellipse fill="none" stroke="black" cx="993.6" cy="-261" rx="134.86" ry="18"/>
<text xml:space="preserve" text-anchor="middle" x="993.6" y="-255.38" font-family="Times New Roman,serif" font-size="15.00">bil doc is released for billing</text>
</g>
<!-- 2256957828656&#45;&#45;2256956006528 -->
<g id="edge11" class="edge">
<title>2256957828656&#45;&#45;2256956006528</title>
<path fill="none" stroke="black" d="M662.94,-361.66C718.91,-344.57 859.16,-301.75 937.49,-277.83"/>
</g>
<!-- 2256956014208 -->
<g id="node10" class="node">
<title>2256956014208</title>
<ellipse fill="none" stroke="black" cx="1359.83" cy="-450" rx="140.12" ry="18"/>
<text xml:space="preserve" text-anchor="middle" x="1359.83" y="-444.38" font-family="Times New Roman,serif" font-size="15.00">delivery is relevant for billing</text>
</g>
<!-- 2256957831728&#45;&#45;2256956014208 -->
<g id="edge6" class="edge">
<title>2256957831728&#45;&#45;2256956014208</title>
<path fill="none" stroke="black" d="M1020.8,-424.94C1065.65,-428.27 1159.84,-435.25 1237.43,-441"/>
</g>
<!-- 2256956004032 -->
<g id="node11" class="node">
<title>2256956004032</title>
<ellipse fill="none" stroke="black" cx="1359.83" cy="-396" rx="101.19" ry="18"/>
<text xml:space="preserve" text-anchor="middle" x="1359.83" y="-390.38" font-family="Times New Roman,serif" font-size="15.00">goods issue is posted</text>
</g>
<!-- 2256957831728&#45;&#45;2256956004032 -->
<g id="edge7" class="edge">
<title>2256957831728&#45;&#45;2256956004032</title>
<path fill="none" stroke="black" d="M1020.8,-421.06C1071.28,-417.32 1184.25,-408.94 1265.71,-402.9"/>
</g>
<!-- 2256956006192 -->
<g id="node19" class="node">
<title>2256956006192</title>
<ellipse fill="none" stroke="black" cx="637.9" cy="-207" rx="125.39" ry="18"/>
<text xml:space="preserve" text-anchor="middle" x="637.9" y="-201.38" font-family="Times New Roman,serif" font-size="15.00">customer invoice is posted</text>
</g>
<!-- 2256957824288&#45;&#45;2256956006192 -->
<g id="edge17" class="edge">
<title>2256957824288&#45;&#45;2256956006192</title>
<path fill="none" stroke="black" d="M308.24,-181.99C353.6,-185.44 449.5,-192.74 526.05,-198.56"/>
</g>
<!-- 2256956005088 -->
<g id="node20" class="node">
<title>2256956005088</title>
<ellipse fill="none" stroke="black" cx="637.9" cy="-153" rx="102.77" ry="18"/>
<text xml:space="preserve" text-anchor="middle" x="637.9" y="-147.38" font-family="Times New Roman,serif" font-size="15.00">invoice list is created</text>
</g>
<!-- 2256957824288&#45;&#45;2256956005088 -->
<g id="edge18" class="edge">
<title>2256957824288&#45;&#45;2256956005088</title>
<path fill="none" stroke="black" d="M308.24,-178.01C356.96,-174.31 463.98,-166.16 542.72,-160.17"/>
</g>
</g>
</svg>
