<?xml version="1.0" encoding="UTF-8" standalone="no"?>
<!DOCTYPE svg PUBLIC "-//W3C//DTD SVG 1.1//EN"
 "http://www.w3.org/Graphics/SVG/1.1/DTD/svg11.dtd">
<!-- Generated by graphviz version 14.0.5 (20251129.0259)
 -->
<!-- Title: pt Pages: 1 -->
<svg width="1520pt" height="530pt"
 viewBox="0.00 0.00 1520.00 530.00" xmlns="http://www.w3.org/2000/svg" xmlns:xlink="http://www.w3.org/1999/xlink">
<g id="graph0" class="graph" transform="scale(1 1) rotate(0) translate(4 526)">
<title>pt</title>
<polygon fill="white" stroke="none" points="-4,4 -4,-526 1516,-526 1516,4 -4,4"/>
<!-- 2256958035504 -->
<g id="node1" class="node">
<title>2256958035504</title>
<ellipse fill="none" stroke="black" cx="27" cy="-261" rx="27" ry="18"/>
<text xml:space="preserve" text-anchor="middle" x="27" y="-255.38" font-family="Times New Roman,serif" font-size="15.00">seq</text>
</g>
<!-- 2256958044528 -->
<g id="node2" class="node">
<title>2256958044528</title>
<ellipse fill="none" stroke="black" cx="370.59" cy="-504" rx="215.88" ry="18"/>
<text xml:space="preserve" text-anchor="middle" x="370.59" y="-498.38" font-family="Times New Roman,serif" font-size="15.00">be data integrated planning settled transfer with</text>
</g>
<!-- 2256958035504&#45;&#45;2256958044528 -->
<g id="edge1" class="edge">
<title>2256958035504&#45;&#45;2256958044528</title>
<path fill="none" stroke="black" d="M46.37,-274.06C103.46,-314.68 277.96,-438.82 343.95,-485.76"/>
</g>
<!-- 2256958040208 -->
<g id="node3" class="node">
<title>2256958040208</title>
<ellipse fill="none" stroke="black" cx="370.59" cy="-450" rx="188" ry="18"/>
<text xml:space="preserve" text-anchor="middle" x="370.59" y="-444.38" font-family="Times New Roman,serif" font-size="15.00">114f8d59&#45;977a&#45;43da&#45;87f8&#45;641cd4ae4b19</text>
</g>
<!-- 2256958035504&#45;&#45;2256958040208 -->
<g id="edge2" class="edge">
<title>2256958035504&#45;&#45;2256958040208</title>
<path fill="none" stroke="black" d="M48.6,-272.4C105.86,-304.08 267.31,-393.41 336.95,-431.94"/>
</g>
<!-- 2256958037088 -->
<g id="node4" class="node">
<title>2256958037088</title>
<ellipse fill="none" stroke="black" cx="370.59" cy="-396" rx="27" ry="18"/>
<text xml:space="preserve" text-anchor="middle" x="370.59" y="-390.38" font-family="Times New Roman,serif" font-size="15.00">and</text>
</g>
<!-- 2256958035504&#45;&#45;2256958037088 -->
<g id="edge9" class="edge">
<title>2256958035504&#45;&#45;2256958037088</title>
<path fill="none" stroke="black" d="M50.94,-270.07C113.17,-294.66 284.64,-362.43 346.75,-386.97"/>
</g>
<!-- 2256958036368 -->
<g id="node11" class="node">
<title>2256958036368</title>
<ellipse fill="none" stroke="black" cx="370.59" cy="-342" rx="187.47" ry="18"/>
<text xml:space="preserve" text-anchor="middle" x="370.59" y="-336.38" font-family="Times New Roman,serif" font-size="15.00">f83be9c7&#45;65ae&#45;4813&#45;9254&#45;1c79aa7264f1</text>
</g>
<!-- 2256958035504&#45;&#45;2256958036368 -->
<g id="edge10" class="edge">
<title>2256958035504&#45;&#45;2256958036368</title>
<path fill="none" stroke="black" d="M52.84,-266.89C103.66,-278.94 221.15,-306.8 297.88,-324.99"/>
</g>
<!-- 2256958036032 -->
<g id="node12" class="node">
<title>2256958036032</title>
<ellipse fill="none" stroke="black" cx="370.59" cy="-288" rx="150.12" ry="18"/>
<text xml:space="preserve" text-anchor="middle" x="370.59" y="-282.38" font-family="Times New Roman,serif" font-size="15.00">costing for is plan reservation to</text>
</g>
<!-- 2256958035504&#45;&#45;2256958036032 -->
<g id="edge11" class="edge">
<title>2256958035504&#45;&#45;2256958036032</title>
<path fill="none" stroke="black" d="M54.24,-263.07C94.62,-266.27 174.61,-272.59 243.92,-278.07"/>
</g>
<!-- 2256958044144 -->
<g id="node13" class="node">
<title>2256958044144</title>
<ellipse fill="none" stroke="black" cx="370.59" cy="-234" rx="280.59" ry="18"/>
<text xml:space="preserve" text-anchor="middle" x="370.59" y="-228.38" font-family="Times New Roman,serif" font-size="15.00">be be confirmations contact created requisition sales time to to</text>
</g>
<!-- 2256958035504&#45;&#45;2256958044144 -->
<g id="edge12" class="edge">
<title>2256958035504&#45;&#45;2256958044144</title>
<path fill="none" stroke="black" d="M54.24,-258.93C84.47,-256.54 136.89,-252.39 190.41,-248.16"/>
</g>
<!-- 2256958043952 -->
<g id="node14" class="node">
<title>2256958043952</title>
<ellipse fill="none" stroke="black" cx="370.59" cy="-180" rx="155.9" ry="18"/>
<text xml:space="preserve" text-anchor="middle" x="370.59" y="-174.38" font-family="Times New Roman,serif" font-size="15.00">expenses of request request travel</text>
</g>
<!-- 2256958035504&#45;&#45;2256958043952 -->
<g id="edge13" class="edge">
<title>2256958035504&#45;&#45;2256958043952</title>
<path fill="none" stroke="black" d="M52.84,-255.11C104.2,-242.93 223.65,-214.61 300.3,-196.43"/>
</g>
<!-- 2256958029936 -->
<g id="node15" class="node">
<title>2256958029936</title>
<ellipse fill="none" stroke="black" cx="370.59" cy="-126" rx="190.1" ry="18"/>
<text xml:space="preserve" text-anchor="middle" x="370.59" y="-120.38" font-family="Times New Roman,serif" font-size="15.00">26d64b19&#45;ee47&#45;4954&#45;bd51&#45;82ddee3d0afd</text>
</g>
<!-- 2256958035504&#45;&#45;2256958029936 -->
<g id="edge14" class="edge">
<title>2256958035504&#45;&#45;2256958029936</title>
<path fill="none" stroke="black" d="M50.94,-251.93C106.74,-229.88 250.36,-173.12 324.22,-143.93"/>
</g>
<!-- 2256958034304 -->
<g id="node16" class="node">
<title>2256958034304</title>
<ellipse fill="none" stroke="black" cx="370.59" cy="-72" rx="27" ry="18"/>
<text xml:space="preserve" text-anchor="middle" x="370.59" y="-66.38" font-family="Times New Roman,serif" font-size="15.00">and</text>
</g>
<!-- 2256958035504&#45;&#45;2256958034304 -->
<g id="edge19" class="edge">
<title>2256958035504&#45;&#45;2256958034304</title>
<path fill="none" stroke="black" d="M48.6,-249.6C109.47,-215.92 288.06,-117.11 348.97,-83.41"/>
</g>
<!-- 2256958038288 -->
<g id="node21" class="node">
<title>2256958038288</title>
<ellipse fill="none" stroke="black" cx="370.59" cy="-18" rx="186.94" ry="18"/>
<text xml:space="preserve" text-anchor="middle" x="370.59" y="-12.38" font-family="Times New Roman,serif" font-size="15.00">f036c9d7&#45;4def&#45;40c3&#45;96db&#45;88c1f5c68b83</text>
</g>
<!-- 2256958035504&#45;&#45;2256958038288 -->
<g id="edge20" class="edge">
<title>2256958035504&#45;&#45;2256958038288</title>
<path fill="none" stroke="black" d="M46.37,-247.94C103.46,-207.32 277.96,-83.18 343.95,-36.24"/>
</g>
<!-- 2256958034448 -->
<g id="node5" class="node">
<title>2256958034448</title>
<ellipse fill="none" stroke="black" cx="805.21" cy="-423" rx="27" ry="18"/>
<text xml:space="preserve" text-anchor="middle" x="805.21" y="-417.38" font-family="Times New Roman,serif" font-size="15.00">seq</text>
</g>
<!-- 2256958037088&#45;&#45;2256958034448 -->
<g id="edge5" class="edge">
<title>2256958037088&#45;&#45;2256958034448</title>
<path fill="none" stroke="black" d="M397.68,-397.63C474.77,-402.44 700.95,-416.56 778.09,-421.37"/>
</g>
<!-- 2256958033584 -->
<g id="node8" class="node">
<title>2256958033584</title>
<ellipse fill="none" stroke="black" cx="805.21" cy="-369" rx="27" ry="18"/>
<text xml:space="preserve" text-anchor="middle" x="805.21" y="-363.38" font-family="Times New Roman,serif" font-size="15.00">seq</text>
</g>
<!-- 2256958037088&#45;&#45;2256958033584 -->
<g id="edge8" class="edge">
<title>2256958037088&#45;&#45;2256958033584</title>
<path fill="none" stroke="black" d="M397.68,-394.37C474.77,-389.56 700.95,-375.44 778.09,-370.63"/>
</g>
<!-- 2256958043232 -->
<g id="node6" class="node">
<title>2256958043232</title>
<ellipse fill="none" stroke="black" cx="1235.61" cy="-477" rx="175.37" ry="18"/>
<text xml:space="preserve" text-anchor="middle" x="1235.61" y="-471.38" font-family="Times New Roman,serif" font-size="15.00">balance forward must selected to were</text>
</g>
<!-- 2256958034448&#45;&#45;2256958043232 -->
<g id="edge3" class="edge">
<title>2256958034448&#45;&#45;2256958043232</title>
<path fill="none" stroke="black" d="M832.04,-426.26C888.21,-433.34 1024.31,-450.49 1122.74,-462.9"/>
</g>
<!-- 2256958044432 -->
<g id="node7" class="node">
<title>2256958044432</title>
<ellipse fill="none" stroke="black" cx="1235.61" cy="-423" rx="206.94" ry="18"/>
<text xml:space="preserve" text-anchor="middle" x="1235.61" y="-417.38" font-family="Times New Roman,serif" font-size="15.00">calculation calculation capital order overhead</text>
</g>
<!-- 2256958034448&#45;&#45;2256958044432 -->
<g id="edge4" class="edge">
<title>2256958034448&#45;&#45;2256958044432</title>
<path fill="none" stroke="black" d="M832.68,-423C872.41,-423 951.04,-423 1028.3,-423"/>
</g>
<!-- 2256958030944 -->
<g id="node9" class="node">
<title>2256958030944</title>
<ellipse fill="none" stroke="black" cx="1235.61" cy="-369" rx="276.38" ry="18"/>
<text xml:space="preserve" text-anchor="middle" x="1235.61" y="-363.38" font-family="Times New Roman,serif" font-size="15.00">forecast material planning processed production requirements</text>
</g>
<!-- 2256958033584&#45;&#45;2256958030944 -->
<g id="edge6" class="edge">
<title>2256958033584&#45;&#45;2256958030944</title>
<path fill="none" stroke="black" d="M832.68,-369C860.37,-369 906.95,-369 958.79,-369"/>
</g>
<!-- 2256958042656 -->
<g id="node10" class="node">
<title>2256958042656</title>
<ellipse fill="none" stroke="black" cx="1235.61" cy="-315" rx="207.46" ry="18"/>
<text xml:space="preserve" text-anchor="middle" x="1235.61" y="-309.38" font-family="Times New Roman,serif" font-size="15.00">development need personnel provision results</text>
</g>
<!-- 2256958033584&#45;&#45;2256958042656 -->
<g id="edge7" class="edge">
<title>2256958033584&#45;&#45;2256958042656</title>
<path fill="none" stroke="black" d="M832.04,-365.74C886.76,-358.85 1017.35,-342.39 1115.05,-330.07"/>
</g>
<!-- 2256958033872 -->
<g id="node17" class="node">
<title>2256958033872</title>
<ellipse fill="none" stroke="black" cx="805.21" cy="-99" rx="118.02" ry="18"/>
<text xml:space="preserve" text-anchor="middle" x="805.21" y="-93.38" font-family="Times New Roman,serif" font-size="15.00">amounts exist settlement</text>
</g>
<!-- 2256958034304&#45;&#45;2256958033872 -->
<g id="edge15" class="edge">
<title>2256958034304&#45;&#45;2256958033872</title>
<path fill="none" stroke="black" d="M397.68,-73.63C455.13,-77.21 595.39,-85.97 695.05,-92.19"/>
</g>
<!-- 2256958037952 -->
<g id="node18" class="node">
<title>2256958037952</title>
<ellipse fill="none" stroke="black" cx="805.21" cy="-45" rx="27" ry="18"/>
<text xml:space="preserve" text-anchor="middle" x="805.21" y="-39.38" font-family="Times New Roman,serif" font-size="15.00">seq</text>
</g>
<!-- 2256958034304&#45;&#45;2256958037952 -->
<g id="edge18" class="edge">
<title>2256958034304&#45;&#45;2256958037952</title>
<path fill="none" stroke="black" d="M397.68,-70.37C474.77,-65.56 700.95,-51.44 778.09,-46.63"/>
</g>
<!-- 2256958039152 -->
<g id="node19" class="node">
<title>2256958039152</title>
<ellipse fill="none" stroke="black" cx="1235.61" cy="-72" rx="129.6" ry="18"/>
<text xml:space="preserve" text-anchor="middle" x="1235.61" y="-66.38" font-family="Times New Roman,serif" font-size="15.00">advice edi out payment was</text>
</g>
<!-- 2256958037952&#45;&#45;2256958039152 -->
<g id="edge16" class="edge">
<title>2256958037952&#45;&#45;2256958039152</title>
<path fill="none" stroke="black" d="M832.36,-46.65C887.59,-50.13 1019.04,-58.41 1116.74,-64.57"/>
</g>
<!-- 2256958034256 -->
<g id="node20" class="node">
<title>2256958034256</title>
<ellipse fill="none" stroke="black" cx="1235.61" cy="-18" rx="188.52" ry="18"/>
<text xml:space="preserve" text-anchor="middle" x="1235.61" y="-12.38" font-family="Times New Roman,serif" font-size="15.00">clearing interface is posted to withdrawal</text>
</g>
<!-- 2256958037952&#45;&#45;2256958034256 -->
<g id="edge17" class="edge">
<title>2256958037952&#45;&#45;2256958034256</title>
<path fill="none" stroke="black" d="M832.36,-43.35C880.28,-40.33 985.57,-33.7 1076.41,-27.97"/>
</g>
</g>
</svg>
