<?xml version="1.0" encoding="UTF-8" standalone="no"?>
<!DOCTYPE svg PUBLIC "-//W3C//DTD SVG 1.1//EN"
 "http://www.w3.org/Graphics/SVG/1.1/DTD/svg11.dtd">
<!-- Generated by graphviz version 14.0.5 (20251129.0259)
 -->
<!-- Title: pt Pages: 1 -->
<svg width="1108pt" height="260pt"
 viewBox="0.00 0.00 1108.00 260.00" xmlns="http://www.w3.org/2000/svg" xmlns:xlink="http://www.w3.org/1999/xlink">
<g id="graph0" class="graph" transform="scale(1 1) rotate(0) translate(4 256)">
<title>pt</title>
<polygon fill="white" stroke="none" points="-4,4 -4,-256 1104,-256 1104,4 -4,4"/>
<!-- 2256958699360 -->
<g id="node1" class="node">
<title>2256958699360</title>
<ellipse fill="none" stroke="black" cx="27" cy="-126" rx="27" ry="18"/>
<text xml:space="preserve" text-anchor="middle" x="27" y="-120.38" font-family="Times New Roman,serif" font-size="15.00">seq</text>
</g>
<!-- 2256958687888 -->
<g id="node2" class="node">
<title>2256958687888</title>
<ellipse fill="none" stroke="black" cx="316.4" cy="-234" rx="226.4" ry="18"/>
<text xml:space="preserve" text-anchor="middle" x="316.4" y="-228.38" font-family="Times New Roman,serif" font-size="15.00">center date entry non of sender technical technical</text>
</g>
<!-- 2256958699360&#45;&#45;2256958687888 -->
<g id="edge1" class="edge">
<title>2256958699360&#45;&#45;2256958687888</title>
<path fill="none" stroke="black" d="M51.03,-134.66C97.85,-152.25 204.99,-192.51 267.56,-216.02"/>
</g>
<!-- 2256958695568 -->
<g id="node3" class="node">
<title>2256958695568</title>
<ellipse fill="none" stroke="black" cx="316.4" cy="-180" rx="27" ry="18"/>
<text xml:space="preserve" text-anchor="middle" x="316.4" y="-174.38" font-family="Times New Roman,serif" font-size="15.00">xor</text>
</g>
<!-- 2256958699360&#45;&#45;2256958695568 -->
<g id="edge4" class="edge">
<title>2256958699360&#45;&#45;2256958695568</title>
<path fill="none" stroke="black" d="M53.51,-130.79C108.04,-141.04 235.47,-164.98 289.95,-175.22"/>
</g>
<!-- 2256958690048 -->
<g id="node6" class="node">
<title>2256958690048</title>
<ellipse fill="none" stroke="black" cx="316.4" cy="-126" rx="124.34" ry="18"/>
<text xml:space="preserve" text-anchor="middle" x="316.4" y="-120.38" font-family="Times New Roman,serif" font-size="15.00">be costs end product set to</text>
</g>
<!-- 2256958699360&#45;&#45;2256958690048 -->
<g id="edge5" class="edge">
<title>2256958699360&#45;&#45;2256958690048</title>
<path fill="none" stroke="black" d="M54.27,-126C85.65,-126 140.38,-126 191.64,-126"/>
</g>
<!-- 2256958692640 -->
<g id="node7" class="node">
<title>2256958692640</title>
<ellipse fill="none" stroke="black" cx="316.4" cy="-72" rx="208.51" ry="18"/>
<text xml:space="preserve" text-anchor="middle" x="316.4" y="-66.38" font-family="Times New Roman,serif" font-size="15.00">default for for product product service service</text>
</g>
<!-- 2256958699360&#45;&#45;2256958692640 -->
<g id="edge6" class="edge">
<title>2256958699360&#45;&#45;2256958692640</title>
<path fill="none" stroke="black" d="M53.51,-121.21C92.04,-113.97 166.96,-99.89 226.83,-88.64"/>
</g>
<!-- 2256958685776 -->
<g id="node8" class="node">
<title>2256958685776</title>
<ellipse fill="none" stroke="black" cx="316.4" cy="-18" rx="162.74" ry="18"/>
<text xml:space="preserve" text-anchor="middle" x="316.4" y="-12.38" font-family="Times New Roman,serif" font-size="15.00">be control estimate of set variances</text>
</g>
<!-- 2256958699360&#45;&#45;2256958685776 -->
<g id="edge7" class="edge">
<title>2256958699360&#45;&#45;2256958685776</title>
<path fill="none" stroke="black" d="M51.03,-117.34C98.05,-99.68 205.9,-59.15 268.35,-35.68"/>
</g>
<!-- 2256958695616 -->
<g id="node4" class="node">
<title>2256958695616</title>
<ellipse fill="none" stroke="black" cx="839.41" cy="-207" rx="138.54" ry="18"/>
<text xml:space="preserve" text-anchor="middle" x="839.41" y="-201.38" font-family="Times New Roman,serif" font-size="15.00">document entry for manual to</text>
</g>
<!-- 2256958695568&#45;&#45;2256958695616 -->
<g id="edge2" class="edge">
<title>2256958695568&#45;&#45;2256958695616</title>
<path fill="none" stroke="black" d="M343.6,-181.36C409.68,-184.78 586.68,-193.95 709.99,-200.35"/>
</g>
<!-- 2256958688704 -->
<g id="node5" class="node">
<title>2256958688704</title>
<ellipse fill="none" stroke="black" cx="839.41" cy="-153" rx="260.6" ry="18"/>
<text xml:space="preserve" text-anchor="middle" x="839.41" y="-147.38" font-family="Times New Roman,serif" font-size="15.00">allocated allocated based costs overhead overhead process</text>
</g>
<!-- 2256958695568&#45;&#45;2256958688704 -->
<g id="edge3" class="edge">
<title>2256958695568&#45;&#45;2256958688704</title>
<path fill="none" stroke="black" d="M343.6,-178.64C396.06,-175.92 518.44,-169.58 628.35,-163.89"/>
</g>
</g>
</svg>
