<?xml version="1.0" encoding="UTF-8" standalone="no"?>
<!DOCTYPE svg PUBLIC "-//W3C//DTD SVG 1.1//EN"
 "http://www.w3.org/Graphics/SVG/1.1/DTD/svg11.dtd">
<!-- Generated by graphviz version 14.0.5 (20251129.0259)
 -->
<!-- Title: pt Pages: 1 -->
<svg width="2159pt" height="314pt"
 viewBox="0.00 0.00 2159.00 314.00" xmlns="http://www.w3.org/2000/svg" xmlns:xlink="http://www.w3.org/1999/xlink">
<g id="graph0" class="graph" transform="scale(1 1) rotate(0) translate(4 310)">
<title>pt</title>
<polygon fill="white" stroke="none" points="-4,4 -4,-310 2154.78,-310 2154.78,4 -4,4"/>
<!-- 2256955099408 -->
<g id="node1" class="node">
<title>2256955099408</title>
<ellipse fill="none" stroke="black" cx="27" cy="-207" rx="27" ry="18"/>
<text xml:space="preserve" text-anchor="middle" x="27" y="-201.38" font-family="Times New Roman,serif" font-size="15.00">seq</text>
</g>
<!-- 2256955102768 -->
<g id="node2" class="node">
<title>2256955102768</title>
<ellipse fill="none" stroke="black" cx="306.93" cy="-288" rx="216.93" ry="18"/>
<text xml:space="preserve" text-anchor="middle" x="306.93" y="-282.38" font-family="Times New Roman,serif" font-size="15.00">accounting center cost inventories plan required</text>
</g>
<!-- 2256955099408&#45;&#45;2256955102768 -->
<g id="edge1" class="edge">
<title>2256955099408&#45;&#45;2256955102768</title>
<path fill="none" stroke="black" d="M52.18,-214.05C94.84,-226.48 184.66,-252.66 245.17,-270.29"/>
</g>
<!-- 2256955110832 -->
<g id="node3" class="node">
<title>2256955110832</title>
<ellipse fill="none" stroke="black" cx="306.93" cy="-234" rx="186.94" ry="18"/>
<text xml:space="preserve" text-anchor="middle" x="306.93" y="-228.38" font-family="Times New Roman,serif" font-size="15.00">50c6cc9b&#45;8ace&#45;4e7a&#45;a3fa&#45;631be8393297</text>
</g>
<!-- 2256955099408&#45;&#45;2256955110832 -->
<g id="edge2" class="edge">
<title>2256955099408&#45;&#45;2256955110832</title>
<path fill="none" stroke="black" d="M54.15,-209.54C81.92,-212.24 127.96,-216.71 173.13,-221.1"/>
</g>
<!-- 2256955106656 -->
<g id="node4" class="node">
<title>2256955106656</title>
<ellipse fill="none" stroke="black" cx="306.93" cy="-180" rx="27" ry="18"/>
<text xml:space="preserve" text-anchor="middle" x="306.93" y="-174.38" font-family="Times New Roman,serif" font-size="15.00">and</text>
</g>
<!-- 2256955099408&#45;&#45;2256955106656 -->
<g id="edge16" class="edge">
<title>2256955099408&#45;&#45;2256955106656</title>
<path fill="none" stroke="black" d="M54.15,-204.46C107.25,-199.3 227.18,-187.65 280.06,-182.51"/>
</g>
<!-- 2256955105984 -->
<g id="node18" class="node">
<title>2256955105984</title>
<ellipse fill="none" stroke="black" cx="306.93" cy="-126" rx="187.47" ry="18"/>
<text xml:space="preserve" text-anchor="middle" x="306.93" y="-120.38" font-family="Times New Roman,serif" font-size="15.00">4bcf34e7&#45;03be&#45;4972&#45;b881&#45;9fed5426bf62</text>
</g>
<!-- 2256955099408&#45;&#45;2256955105984 -->
<g id="edge17" class="edge">
<title>2256955099408&#45;&#45;2256955105984</title>
<path fill="none" stroke="black" d="M52.18,-199.95C95.03,-187.46 185.5,-161.1 246.01,-143.46"/>
</g>
<!-- 2256955618208 -->
<g id="node5" class="node">
<title>2256955618208</title>
<ellipse fill="none" stroke="black" cx="719.98" cy="-207" rx="160.11" ry="18"/>
<text xml:space="preserve" text-anchor="middle" x="719.98" y="-201.38" font-family="Times New Roman,serif" font-size="15.00">are be data foreign processed trade</text>
</g>
<!-- 2256955106656&#45;&#45;2256955618208 -->
<g id="edge3" class="edge">
<title>2256955106656&#45;&#45;2256955618208</title>
<path fill="none" stroke="black" d="M334.27,-181.73C383.18,-184.94 491.15,-192.03 580.29,-197.89"/>
</g>
<!-- 2256955607264 -->
<g id="node6" class="node">
<title>2256955607264</title>
<ellipse fill="none" stroke="black" cx="719.98" cy="-153" rx="27" ry="18"/>
<text xml:space="preserve" text-anchor="middle" x="719.98" y="-147.38" font-family="Times New Roman,serif" font-size="15.00">seq</text>
</g>
<!-- 2256955106656&#45;&#45;2256955607264 -->
<g id="edge15" class="edge">
<title>2256955106656&#45;&#45;2256955607264</title>
<path fill="none" stroke="black" d="M334.27,-178.27C408.51,-173.39 618.89,-159.57 692.86,-154.72"/>
</g>
<!-- 2256955607456 -->
<g id="node7" class="node">
<title>2256955607456</title>
<ellipse fill="none" stroke="black" cx="1182.48" cy="-261" rx="266.39" ry="18"/>
<text xml:space="preserve" text-anchor="middle" x="1182.48" y="-255.38" font-family="Times New Roman,serif" font-size="15.00">cost costs overhead process processed profitability released</text>
</g>
<!-- 2256955607264&#45;&#45;2256955607456 -->
<g id="edge4" class="edge">
<title>2256955607264&#45;&#45;2256955607456</title>
<path fill="none" stroke="black" d="M745.74,-158.81C812.8,-174.54 1000.05,-218.45 1105.97,-243.29"/>
</g>
<!-- 2256955608368 -->
<g id="node8" class="node">
<title>2256955608368</title>
<ellipse fill="none" stroke="black" cx="1182.48" cy="-207" rx="251.66" ry="18"/>
<text xml:space="preserve" text-anchor="middle" x="1182.48" y="-201.38" font-family="Times New Roman,serif" font-size="15.00">actual current entered findings forecast intercompany to</text>
</g>
<!-- 2256955607264&#45;&#45;2256955608368 -->
<g id="edge5" class="edge">
<title>2256955607264&#45;&#45;2256955608368</title>
<path fill="none" stroke="black" d="M747.06,-156.06C803.95,-162.73 942.54,-178.98 1048.02,-191.35"/>
</g>
<!-- 2256955611296 -->
<g id="node9" class="node">
<title>2256955611296</title>
<ellipse fill="none" stroke="black" cx="1182.48" cy="-153" rx="128.55" ry="18"/>
<text xml:space="preserve" text-anchor="middle" x="1182.48" y="-147.38" font-family="Times New Roman,serif" font-size="15.00">appraisal need of personnel</text>
</g>
<!-- 2256955607264&#45;&#45;2256955611296 -->
<g id="edge6" class="edge">
<title>2256955607264&#45;&#45;2256955611296</title>
<path fill="none" stroke="black" d="M747.39,-153C805.49,-153 947.63,-153 1053.53,-153"/>
</g>
<!-- 2256955607216 -->
<g id="node10" class="node">
<title>2256955607216</title>
<ellipse fill="none" stroke="black" cx="1182.48" cy="-99" rx="27" ry="18"/>
<text xml:space="preserve" text-anchor="middle" x="1182.48" y="-93.38" font-family="Times New Roman,serif" font-size="15.00">xor</text>
</g>
<!-- 2256955607264&#45;&#45;2256955607216 -->
<g id="edge13" class="edge">
<title>2256955607264&#45;&#45;2256955607216</title>
<path fill="none" stroke="black" d="M747.06,-149.94C828.01,-140.45 1074.45,-111.55 1155.4,-102.06"/>
</g>
<!-- 2256955608272 -->
<g id="node17" class="node">
<title>2256955608272</title>
<ellipse fill="none" stroke="black" cx="1182.48" cy="-45" rx="133.81" ry="18"/>
<text xml:space="preserve" text-anchor="middle" x="1182.48" y="-39.38" font-family="Times New Roman,serif" font-size="15.00">in information key valuation</text>
</g>
<!-- 2256955607264&#45;&#45;2256955608272 -->
<g id="edge14" class="edge">
<title>2256955607264&#45;&#45;2256955608272</title>
<path fill="none" stroke="black" d="M745.74,-147.19C814.49,-131.07 1009.51,-85.33 1113.78,-60.88"/>
</g>
<!-- 2256955614992 -->
<g id="node11" class="node">
<title>2256955614992</title>
<ellipse fill="none" stroke="black" cx="1511.86" cy="-126" rx="27" ry="18"/>
<text xml:space="preserve" text-anchor="middle" x="1511.86" y="-120.38" font-family="Times New Roman,serif" font-size="15.00">seq</text>
</g>
<!-- 2256955607216&#45;&#45;2256955614992 -->
<g id="edge9" class="edge">
<title>2256955607216&#45;&#45;2256955614992</title>
<path fill="none" stroke="black" d="M1209.72,-101.16C1271.17,-106.23 1423.83,-118.82 1484.96,-123.86"/>
</g>
<!-- 2256955613264 -->
<g id="node14" class="node">
<title>2256955613264</title>
<ellipse fill="none" stroke="black" cx="1511.86" cy="-72" rx="27" ry="18"/>
<text xml:space="preserve" text-anchor="middle" x="1511.86" y="-66.38" font-family="Times New Roman,serif" font-size="15.00">seq</text>
</g>
<!-- 2256955607216&#45;&#45;2256955613264 -->
<g id="edge12" class="edge">
<title>2256955607216&#45;&#45;2256955613264</title>
<path fill="none" stroke="black" d="M1209.72,-96.84C1271.17,-91.77 1423.83,-79.18 1484.96,-74.14"/>
</g>
<!-- 2256955616480 -->
<g id="node12" class="node">
<title>2256955616480</title>
<ellipse fill="none" stroke="black" cx="1862.82" cy="-180" rx="264.81" ry="18"/>
<text xml:space="preserve" text-anchor="middle" x="1862.82" y="-174.38" font-family="Times New Roman,serif" font-size="15.00">attendee business event inquiry organizer receives reserved</text>
</g>
<!-- 2256955614992&#45;&#45;2256955616480 -->
<g id="edge7" class="edge">
<title>2256955614992&#45;&#45;2256955616480</title>
<path fill="none" stroke="black" d="M1538.52,-129.97C1583.23,-136.89 1677.81,-151.52 1753.18,-163.19"/>
</g>
<!-- 2256955613024 -->
<g id="node13" class="node">
<title>2256955613024</title>
<ellipse fill="none" stroke="black" cx="1862.82" cy="-126" rx="119.6" ry="18"/>
<text xml:space="preserve" text-anchor="middle" x="1862.82" y="-120.38" font-family="Times New Roman,serif" font-size="15.00">entry figures key key key</text>
</g>
<!-- 2256955614992&#45;&#45;2256955613024 -->
<g id="edge8" class="edge">
<title>2256955614992&#45;&#45;2256955613024</title>
<path fill="none" stroke="black" d="M1539.09,-126C1581.97,-126 1669.62,-126 1742.77,-126"/>
</g>
<!-- 2256955619984 -->
<g id="node15" class="node">
<title>2256955619984</title>
<ellipse fill="none" stroke="black" cx="1862.82" cy="-72" rx="287.96" ry="18"/>
<text xml:space="preserve" text-anchor="middle" x="1862.82" y="-66.38" font-family="Times New Roman,serif" font-size="15.00">adopted be checked company development individual operations</text>
</g>
<!-- 2256955613264&#45;&#45;2256955619984 -->
<g id="edge10" class="edge">
<title>2256955613264&#45;&#45;2256955619984</title>
<path fill="none" stroke="black" d="M1539.09,-72C1548.84,-72 1560.9,-72 1574.58,-72"/>
</g>
<!-- 2256955610768 -->
<g id="node16" class="node">
<title>2256955610768</title>
<ellipse fill="none" stroke="black" cx="1862.82" cy="-18" rx="244.82" ry="18"/>
<text xml:space="preserve" text-anchor="middle" x="1862.82" y="-12.38" font-family="Times New Roman,serif" font-size="15.00">created data deprec integrated legal maintained should</text>
</g>
<!-- 2256955613264&#45;&#45;2256955610768 -->
<g id="edge11" class="edge">
<title>2256955613264&#45;&#45;2256955610768</title>
<path fill="none" stroke="black" d="M1538.52,-68.03C1583.54,-61.06 1679.14,-46.27 1754.77,-34.57"/>
</g>
</g>
</svg>
