<?xml version="1.0" encoding="UTF-8" standalone="no"?>
<!DOCTYPE svg PUBLIC "-//W3C//DTD SVG 1.1//EN"
 "http://www.w3.org/Graphics/SVG/1.1/DTD/svg11.dtd">
<!-- Generated by graphviz version 14.0.5 (20251129.0259)
 -->
<!-- Title: pt Pages: 1 -->
<svg width="653pt" height="368pt"
 viewBox="0.00 0.00 653.00 368.00" xmlns="http://www.w3.org/2000/svg" xmlns:xlink="http://www.w3.org/1999/xlink">
<g id="graph0" class="graph" transform="scale(1 1) rotate(0) translate(4 364)">
<title>pt</title>
<polygon fill="white" stroke="none" points="-4,4 -4,-364 648.87,-364 648.87,4 -4,4"/>
<!-- 2256959840048 -->
<g id="node1" class="node">
<title>2256959840048</title>
<ellipse fill="none" stroke="black" cx="27" cy="-180" rx="27" ry="18"/>
<text xml:space="preserve" text-anchor="middle" x="27" y="-174.38" font-family="Times New Roman,serif" font-size="15.00">seq</text>
</g>
<!-- 2256959835392 -->
<g id="node2" class="node">
<title>2256959835392</title>
<ellipse fill="none" stroke="black" cx="367.44" cy="-342" rx="206.41" ry="18"/>
<text xml:space="preserve" text-anchor="middle" x="367.44" y="-336.38" font-family="Times New Roman,serif" font-size="15.00">be implemented is of personnel resource staff</text>
</g>
<!-- 2256959840048&#45;&#45;2256959835392 -->
<g id="edge1" class="edge">
<title>2256959840048&#45;&#45;2256959835392</title>
<path fill="none" stroke="black" d="M49.69,-190.38C106,-217.34 257.44,-289.82 328.56,-323.87"/>
</g>
<!-- 2256959845952 -->
<g id="node3" class="node">
<title>2256959845952</title>
<ellipse fill="none" stroke="black" cx="367.44" cy="-288" rx="193.78" ry="18"/>
<text xml:space="preserve" text-anchor="middle" x="367.44" y="-282.38" font-family="Times New Roman,serif" font-size="15.00">implemented incentive long planning term</text>
</g>
<!-- 2256959840048&#45;&#45;2256959845952 -->
<g id="edge2" class="edge">
<title>2256959840048&#45;&#45;2256959845952</title>
<path fill="none" stroke="black" d="M51.8,-187.59C105.29,-204.66 236.18,-246.43 311.21,-270.38"/>
</g>
<!-- 2256959839760 -->
<g id="node4" class="node">
<title>2256959839760</title>
<ellipse fill="none" stroke="black" cx="367.44" cy="-234" rx="165.9" ry="18"/>
<text xml:space="preserve" text-anchor="middle" x="367.44" y="-228.38" font-family="Times New Roman,serif" font-size="15.00">for incentives is retracted term term</text>
</g>
<!-- 2256959840048&#45;&#45;2256959839760 -->
<g id="edge3" class="edge">
<title>2256959840048&#45;&#45;2256959839760</title>
<path fill="none" stroke="black" d="M53.72,-184.1C99.61,-191.43 197.75,-207.08 271.93,-218.92"/>
</g>
<!-- 2256959847920 -->
<g id="node5" class="node">
<title>2256959847920</title>
<ellipse fill="none" stroke="black" cx="367.44" cy="-180" rx="84.35" ry="18"/>
<text xml:space="preserve" text-anchor="middle" x="367.44" y="-174.38" font-family="Times New Roman,serif" font-size="15.00">for long program</text>
</g>
<!-- 2256959840048&#45;&#45;2256959847920 -->
<g id="edge4" class="edge">
<title>2256959840048&#45;&#45;2256959847920</title>
<path fill="none" stroke="black" d="M54.27,-180C102.73,-180 208.05,-180 282.93,-180"/>
</g>
<!-- 2256959836016 -->
<g id="node6" class="node">
<title>2256959836016</title>
<ellipse fill="none" stroke="black" cx="367.44" cy="-126" rx="277.44" ry="18"/>
<text xml:space="preserve" text-anchor="middle" x="367.44" y="-120.38" font-family="Times New Roman,serif" font-size="15.00">implemented incentives long long need notified program term</text>
</g>
<!-- 2256959840048&#45;&#45;2256959836016 -->
<g id="edge5" class="edge">
<title>2256959840048&#45;&#45;2256959836016</title>
<path fill="none" stroke="black" d="M53.72,-175.9C97.14,-168.97 187.34,-154.58 259.76,-143.02"/>
</g>
<!-- 2256959843264 -->
<g id="node7" class="node">
<title>2256959843264</title>
<ellipse fill="none" stroke="black" cx="367.44" cy="-72" rx="136.44" ry="18"/>
<text xml:space="preserve" text-anchor="middle" x="367.44" y="-66.38" font-family="Times New Roman,serif" font-size="15.00">appraisal design of personnel</text>
</g>
<!-- 2256959840048&#45;&#45;2256959843264 -->
<g id="edge6" class="edge">
<title>2256959840048&#45;&#45;2256959843264</title>
<path fill="none" stroke="black" d="M51.8,-172.41C105.81,-155.17 238.77,-112.74 313.41,-88.92"/>
</g>
<!-- 2256959843936 -->
<g id="node8" class="node">
<title>2256959843936</title>
<ellipse fill="none" stroke="black" cx="367.44" cy="-18" rx="238.5" ry="18"/>
<text xml:space="preserve" text-anchor="middle" x="367.44" y="-12.38" font-family="Times New Roman,serif" font-size="15.00">actual infrastructure need period personnel recording</text>
</g>
<!-- 2256959840048&#45;&#45;2256959843936 -->
<g id="edge7" class="edge">
<title>2256959840048&#45;&#45;2256959843936</title>
<path fill="none" stroke="black" d="M49.69,-169.62C106,-142.66 257.44,-70.18 328.56,-36.13"/>
</g>
</g>
</svg>
