<?xml version="1.0" encoding="UTF-8" standalone="no"?>
<!DOCTYPE svg PUBLIC "-//W3C//DTD SVG 1.1//EN"
 "http://www.w3.org/Graphics/SVG/1.1/DTD/svg11.dtd">
<!-- Generated by graphviz version 14.0.5 (20251129.0259)
 -->
<!-- Title: powl Pages: 1 -->
<svg width="1024pt" height="1030pt"
 viewBox="0.00 0.00 1024.00 1030.00" xmlns="http://www.w3.org/2000/svg" xmlns:xlink="http://www.w3.org/1999/xlink">
<g id="graph0" class="graph" transform="scale(1 1) rotate(0) translate(4 1025.8)">
<title>powl</title>
<polygon fill="white" stroke="none" points="-4,4 -4,-1025.8 1020,-1025.8 1020,4 -4,4"/>
<g id="clust1" class="cluster">
<title>cluster_1857571024144</title>
<polygon fill="#fcfcfc" stroke="black" points="8,-8 8,-1013.8 1008,-1013.8 1008,-8 8,-8"/>
</g>
<g id="clust2" class="cluster">
<title>cluster_1857571026640</title>
<polygon fill="#f7f7f7" stroke="black" points="28,-656 28,-832.8 934,-832.8 934,-656 28,-656"/>
</g>
<!-- 1857570652064 -->
<g id="node1" class="node">
<title>1857570652064</title>
<polygon fill="#f7f7f7" stroke="black" points="784.75,-172 473.25,-172 473.25,-136 784.75,-136 784.75,-172"/>
<text xml:space="preserve" text-anchor="middle" x="629" y="-147.4" font-family="Times New Roman,serif" font-size="18.00">43b29cdc&#45;72c3&#45;4a19&#45;af5e&#45;ec18edcf565f</text>
</g>
<!-- 1857570651632 -->
<g id="node6" class="node">
<title>1857570651632</title>
<polygon fill="#f7f7f7" stroke="black" points="731.12,-64 526.88,-64 526.88,-28 731.12,-28 731.12,-64"/>
<text xml:space="preserve" text-anchor="middle" x="629" y="-39.4" font-family="Times New Roman,serif" font-size="18.00">billing doc for items sales</text>
</g>
<!-- 1857570652064&#45;&gt;1857570651632 -->
<g id="edge3" class="edge">
<title>1857570652064&#45;&gt;1857570651632</title>
<path fill="none" stroke="black" d="M629,-135.97C629,-119.76 629,-95.06 629,-75.79"/>
<polygon fill="black" stroke="black" points="632.5,-75.85 629,-65.85 625.5,-75.85 632.5,-75.85"/>
</g>
<!-- 1857570644432 -->
<g id="node2" class="node">
<title>1857570644432</title>
<polygon fill="#f7f7f7" stroke="black" points="633,-280 221,-280 221,-244 633,-244 633,-280"/>
<text xml:space="preserve" text-anchor="middle" x="427" y="-255.4" font-family="Times New Roman,serif" font-size="18.00">analysis determination determination has lowest value</text>
</g>
<!-- 1857570644432&#45;&gt;1857570652064 -->
<g id="edge4" class="edge">
<title>1857570644432&#45;&gt;1857570652064</title>
<path fill="none" stroke="black" d="M459.9,-243.73C494.14,-225.77 547.91,-197.55 585.6,-177.78"/>
<polygon fill="black" stroke="black" points="587.2,-180.88 594.43,-173.14 583.95,-174.69 587.2,-180.88"/>
</g>
<!-- 1857570642512 -->
<g id="node3" class="node">
<title>1857570642512</title>
<polygon fill="#f7f7f7" stroke="black" points="930.62,-496 735.38,-496 735.38,-460 930.62,-460 930.62,-496"/>
<text xml:space="preserve" text-anchor="middle" x="833" y="-471.4" font-family="Times New Roman,serif" font-size="18.00">data hours processing up</text>
</g>
<!-- 1857571025680 -->
<g id="node8" class="node">
<title>1857571025680</title>
<polygon fill="#f7f7f7" stroke="black" points="987.75,-388 664.25,-388 664.25,-352 987.75,-352 987.75,-388"/>
<text xml:space="preserve" text-anchor="middle" x="826" y="-363.4" font-family="Times New Roman,serif" font-size="18.00">2a6cc8d8&#45;7577&#45;4443&#45;b0bc&#45;31e22b6e4691</text>
</g>
<!-- 1857570642512&#45;&gt;1857571025680 -->
<g id="edge5" class="edge">
<title>1857570642512&#45;&gt;1857571025680</title>
<path fill="none" stroke="black" d="M831.88,-459.97C830.81,-443.76 829.17,-419.06 827.9,-399.79"/>
<polygon fill="black" stroke="black" points="831.4,-399.6 827.24,-389.85 824.41,-400.06 831.4,-399.6"/>
</g>
<!-- 1857570649808 -->
<g id="node4" class="node">
<title>1857570649808</title>
<polygon fill="#f7f7f7" stroke="black" points="981,-604 713,-604 713,-568 981,-568 981,-604"/>
<text xml:space="preserve" text-anchor="middle" x="847" y="-579.4" font-family="Times New Roman,serif" font-size="18.00">cost graphical o set structure using</text>
</g>
<!-- 1857570649808&#45;&gt;1857570642512 -->
<g id="edge6" class="edge">
<title>1857570649808&#45;&gt;1857570642512</title>
<path fill="none" stroke="black" d="M844.75,-567.97C842.6,-551.69 839.32,-526.82 836.77,-507.52"/>
<polygon fill="black" stroke="black" points="840.27,-507.3 835.49,-497.84 833.33,-508.21 840.27,-507.3"/>
</g>
<!-- 1857570644912 -->
<g id="node5" class="node">
<title>1857570644912</title>
<polygon fill="#f7f7f7" stroke="black" points="932.25,-993.8 497.75,-993.8 497.75,-957.8 932.25,-957.8 932.25,-993.8"/>
<text xml:space="preserve" text-anchor="middle" x="715" y="-969.2" font-family="Times New Roman,serif" font-size="18.00">business event operative related resource without without</text>
</g>
<!-- 1857571026640 -->
<g id="node9" class="node">
<title>1857571026640</title>
<ellipse fill="none" stroke="black" cx="715" cy="-798.4" rx="14.4" ry="14.4"/>
<g transform="translate(700.6,-812.8) scale(0.016981132075471698,0.016981132075471698)">

<g transform="translate(0.000000,1696.000000) scale(0.100000,-0.100000)"
fill="#000000" stroke="none">
<path d="M8130 16954 c-516 -29 -894 -74 -1320 -160 -903 -181 -1755 -502
-2555 -962 -355 -204 -646 -400 -980 -661 -2289 -1787 -3498 -4573 -3239
-7466 124 -1385 606 -2753 1377 -3910 511 -765 1134 -1437 1862 -2006 1246
-975 2752 -1581 4335 -1743 405 -42 1056 -54 1425 -28 1031 75 1987 311 2895
715 1449 644 2723 1721 3608 3049 1187 1782 1652 3931 1312 6058 -225 1401
-815 2749 -1694 3865 -961 1221 -2206 2142 -3641 2694 -773 296 -1604 480
-2450 541 -151 11 -813 21 -935 14z m935 -473 c1421 -115 2709 -557 3860
-1324 699 -467 1350 -1071 1876 -1742 771 -984 1297 -2128 1543 -3355 300
-1502 164 -3078 -389 -4490 -216 -553 -483 -1064 -807 -1549 -650 -969 -1558
-1833 -2552 -2425 -1899 -1133 -4174 -1434 -6298 -835 -1821 513 -3419 1674
-4484 3259 -879 1307 -1354 2863 -1354 4440 0 1817 591 3542 1699 4955 642
819 1455 1523 2346 2032 1077 616 2235 959 3515 1043 169 11 871 5 1045 -9z"/>
<path d="M5040 11915 l-1105 -1105 1163 -1163 c639 -639 1162 -1167 1162
-1172 0 -5 -523 -533 -1162 -1172 l-1163 -1163 1108 -1107 1107 -1108 1163
1163 c639 639 1167 1162 1172 1162 5 0 533 -523 1172 -1162 l1163 -1163 1107
1108 1108 1107 -1163 1163 c-639 639 -1162 1167 -1162 1172 0 5 523 533 1162
1172 l1163 1163 -1108 1107 -1107 1108 -1163 -1163 c-639 -639 -1167 -1162
-1172 -1162 -6 0 -532 522 -1170 1160 -638 638 -1162 1160 -1165 1160 -3 0
-502 -497 -1110 -1105z"/>
</g>
</g>
</g>
<!-- 1857570644912&#45;&gt;1857571026640 -->
<g id="edge7" class="edge">
<title>1857570644912&#45;&gt;1857571026640</title>
<path fill="none" stroke="black" d="M715,-957.34C715,-931.2 715,-881.03 715,-844.23"/>
<polygon fill="black" stroke="black" points="718.5,-844.31 715,-834.31 711.5,-844.31 718.5,-844.31"/>
</g>
<!-- 1857570642368 -->
<g id="node7" class="node">
<title>1857570642368</title>
<polygon fill="#f7f7f7" stroke="black" points="974.75,-280 705.25,-280 705.25,-244 974.75,-244 974.75,-280"/>
<text xml:space="preserve" text-anchor="middle" x="840" y="-255.4" font-family="Times New Roman,serif" font-size="18.00">be is is material posted withdrawal</text>
</g>
<!-- 1857570642368&#45;&gt;1857570652064 -->
<g id="edge8" class="edge">
<title>1857570642368&#45;&gt;1857570652064</title>
<path fill="none" stroke="black" d="M805.63,-243.73C769.72,-225.69 713.23,-197.31 673.83,-177.52"/>
<polygon fill="black" stroke="black" points="675.57,-174.48 665.06,-173.11 672.42,-180.73 675.57,-174.48"/>
</g>
<!-- 1857571025680&#45;&gt;1857570644432 -->
<g id="edge9" class="edge">
<title>1857571025680&#45;&gt;1857570644432</title>
<path fill="none" stroke="black" d="M760.56,-351.61C690.07,-332.89 578.03,-303.12 503.52,-283.33"/>
<polygon fill="black" stroke="black" points="504.83,-280.06 494.27,-280.87 503.04,-286.82 504.83,-280.06"/>
</g>
<!-- 1857571025680&#45;&gt;1857570642368 -->
<g id="edge10" class="edge">
<title>1857571025680&#45;&gt;1857570642368</title>
<path fill="none" stroke="black" d="M828.25,-351.97C830.4,-335.69 833.68,-310.82 836.23,-291.52"/>
<polygon fill="black" stroke="black" points="839.67,-292.21 837.51,-281.84 832.73,-291.3 839.67,-292.21"/>
</g>
<!-- 1857571026640&#45;&gt;1857570649808 -->
<g id="edge11" class="edge">
<title>1857571026640&#45;&gt;1857570649808</title>
<path fill="none" stroke="black" d="M934,-730.85C939.86,-725.08 945.23,-718.81 950,-712 964.28,-691.62 961.72,-677.96 950,-656 939.34,-636.03 920.06,-620.82 901.03,-609.84"/>
<polygon fill="black" stroke="black" points="902.94,-606.89 892.49,-605.19 899.6,-613.04 902.94,-606.89"/>
</g>
<!-- 1857571028032 -->
<g id="node10" class="node">
<title>1857571028032</title>
<polygon fill="#f2f2f2" stroke="black" points="444.12,-712 47.88,-712 47.88,-676 444.12,-676 444.12,-712"/>
<text xml:space="preserve" text-anchor="middle" x="246" y="-687.4" font-family="Times New Roman,serif" font-size="18.00">a are data hold maintenance notification one quality</text>
</g>
<!-- 1857571026640&#45;&gt;1857571028032 -->
<g id="edge1" class="edge">
<title>1857571026640&#45;&gt;1857571028032</title>
<path fill="none" stroke="black" d="M700.71,-794.28C645.13,-782.15 440.84,-737.54 325.91,-712.45"/>
</g>
<!-- 1857570669760 -->
<g id="node11" class="node">
<title>1857570669760</title>
<polygon fill="#f2f2f2" stroke="black" points="913.5,-712 516.5,-712 516.5,-676 913.5,-676 913.5,-712"/>
<text xml:space="preserve" text-anchor="middle" x="715" y="-687.4" font-family="Times New Roman,serif" font-size="18.00">be collective completion confirmations of time time</text>
</g>
<!-- 1857571026640&#45;&gt;1857570669760 -->
<g id="edge2" class="edge">
<title>1857571026640&#45;&gt;1857570669760</title>
<path fill="none" stroke="black" d="M715,-783.59C715,-765.14 715,-732.44 715,-712.35"/>
</g>
</g>
</svg>
