<?xml version="1.0" encoding="UTF-8" standalone="no"?>
<!DOCTYPE svg PUBLIC "-//W3C//DTD SVG 1.1//EN"
 "http://www.w3.org/Graphics/SVG/1.1/DTD/svg11.dtd">
<!-- Generated by graphviz version 14.0.5 (20251129.0259)
 -->
<!-- Title: powl Pages: 1 -->
<svg width="788pt" height="424pt"
 viewBox="0.00 0.00 788.00 424.00" xmlns="http://www.w3.org/2000/svg" xmlns:xlink="http://www.w3.org/1999/xlink">
<g id="graph0" class="graph" transform="scale(1 1) rotate(0) translate(4 420)">
<title>powl</title>
<polygon fill="white" stroke="none" points="-4,4 -4,-420 784,-420 784,4 -4,4"/>
<g id="clust1" class="cluster">
<title>cluster_1855980466624</title>
<polygon fill="#fcfcfc" stroke="black" points="8,-8 8,-408 772,-408 772,-8 8,-8"/>
</g>
<!-- 1855980463024 -->
<g id="node1" class="node">
<title>1855980463024</title>
<polygon fill="#f7f7f7" stroke="black" points="417.75,-172 28.25,-172 28.25,-136 417.75,-136 417.75,-172"/>
<text xml:space="preserve" text-anchor="middle" x="223" y="-147.4" font-family="Times New Roman,serif" font-size="18.00">control created credit debit limit out posted request</text>
</g>
<!-- 1855980463360 -->
<g id="node3" class="node">
<title>1855980463360</title>
<polygon fill="#f7f7f7" stroke="black" points="564.75,-64 253.25,-64 253.25,-28 564.75,-28 564.75,-64"/>
<text xml:space="preserve" text-anchor="middle" x="409" y="-39.4" font-family="Times New Roman,serif" font-size="18.00">93f2a7c3&#45;f7fb&#45;4598&#45;b760&#45;97d2932bf6f1</text>
</g>
<!-- 1855980463024&#45;&gt;1855980463360 -->
<g id="edge1" class="edge">
<title>1855980463024&#45;&gt;1855980463360</title>
<path fill="none" stroke="black" d="M253.3,-135.73C284.68,-117.85 333.91,-89.8 368.59,-70.03"/>
<polygon fill="black" stroke="black" points="370.14,-73.18 377.09,-65.18 366.67,-67.1 370.14,-73.18"/>
</g>
<!-- 1855980463840 -->
<g id="node2" class="node">
<title>1855980463840</title>
<polygon fill="#f7f7f7" stroke="black" points="752,-172 490,-172 490,-136 752,-136 752,-172"/>
<text xml:space="preserve" text-anchor="middle" x="621" y="-147.4" font-family="Times New Roman,serif" font-size="18.00">invoice processing reduction with</text>
</g>
<!-- 1855980463840&#45;&gt;1855980463360 -->
<g id="edge2" class="edge">
<title>1855980463840&#45;&gt;1855980463360</title>
<path fill="none" stroke="black" d="M586.47,-135.73C550.39,-117.69 493.63,-89.31 454.04,-69.52"/>
<polygon fill="black" stroke="black" points="455.73,-66.45 445.22,-65.11 452.6,-72.72 455.73,-66.45"/>
</g>
<!-- 1855980467872 -->
<g id="node4" class="node">
<title>1855980467872</title>
<polygon fill="#f7f7f7" stroke="black" points="566,-280 250,-280 250,-244 566,-244 566,-280"/>
<text xml:space="preserve" text-anchor="middle" x="408" y="-255.4" font-family="Times New Roman,serif" font-size="18.00">c549c9e5&#45;a4a0&#45;4a23&#45;8adf&#45;06f4a7693296</text>
</g>
<!-- 1855980467872&#45;&gt;1855980463024 -->
<g id="edge3" class="edge">
<title>1855980467872&#45;&gt;1855980463024</title>
<path fill="none" stroke="black" d="M377.86,-243.73C346.65,-225.85 297.69,-197.8 263.19,-178.03"/>
<polygon fill="black" stroke="black" points="265.16,-175.12 254.74,-173.19 261.68,-181.2 265.16,-175.12"/>
</g>
<!-- 1855980467872&#45;&gt;1855980463840 -->
<g id="edge4" class="edge">
<title>1855980467872&#45;&gt;1855980463840</title>
<path fill="none" stroke="black" d="M442.7,-243.73C478.95,-225.69 535.97,-197.31 575.74,-177.52"/>
<polygon fill="black" stroke="black" points="577.22,-180.7 584.61,-173.11 574.1,-174.43 577.22,-180.7"/>
</g>
<!-- 1855980463408 -->
<g id="node5" class="node">
<title>1855980463408</title>
<polygon fill="#f7f7f7" stroke="black" points="548.75,-388 267.25,-388 267.25,-352 548.75,-352 548.75,-388"/>
<text xml:space="preserve" text-anchor="middle" x="408" y="-363.4" font-family="Times New Roman,serif" font-size="18.00">contact contract quotation to to to to</text>
</g>
<!-- 1855980463408&#45;&gt;1855980467872 -->
<g id="edge5" class="edge">
<title>1855980463408&#45;&gt;1855980467872</title>
<path fill="none" stroke="black" d="M408,-351.97C408,-335.76 408,-311.06 408,-291.79"/>
<polygon fill="black" stroke="black" points="411.5,-291.85 408,-281.85 404.5,-291.85 411.5,-291.85"/>
</g>
</g>
</svg>
