<?xml version="1.0" encoding="UTF-8" standalone="no"?>
<!DOCTYPE svg PUBLIC "-//W3C//DTD SVG 1.1//EN"
 "http://www.w3.org/Graphics/SVG/1.1/DTD/svg11.dtd">
<!-- Generated by graphviz version 14.0.5 (20251129.0259)
 -->
<!-- Title: powl Pages: 1 -->
<svg width="1604pt" height="746pt"
 viewBox="0.00 0.00 1604.00 746.00" xmlns="http://www.w3.org/2000/svg" xmlns:xlink="http://www.w3.org/1999/xlink">
<g id="graph0" class="graph" transform="scale(1 1) rotate(0) translate(4 741.8)">
<title>powl</title>
<polygon fill="white" stroke="none" points="-4,4 -4,-741.8 1600,-741.8 1600,4 -4,4"/>
<g id="clust1" class="cluster">
<title>cluster_1857152872272</title>
<polygon fill="#fcfcfc" stroke="black" points="8,-8 8,-729.8 1588,-729.8 1588,-8 8,-8"/>
</g>
<g id="clust2" class="cluster">
<title>cluster_1855980707920</title>
<polygon fill="#f7f7f7" stroke="black" points="28,-28 28,-548.8 932,-548.8 932,-28 28,-28"/>
</g>
<g id="clust3" class="cluster">
<title>cluster_1855980712096</title>
<polygon fill="#f2f2f2" stroke="black" points="48,-264 48,-448 410,-448 410,-264 48,-264"/>
</g>
<g id="clust4" class="cluster">
<title>cluster_1855983002064</title>
<polygon fill="#f2f2f2" stroke="black" points="430,-48 430,-340 912,-340 912,-48 430,-48"/>
</g>
<!-- 1855980713968 -->
<g id="node1" class="node">
<title>1855980713968</title>
<polygon fill="#f7f7f7" stroke="black" points="1568.38,-212 951.62,-212 951.62,-176 1568.38,-176 1568.38,-212"/>
<text xml:space="preserve" text-anchor="middle" x="1260" y="-187.4" font-family="Times New Roman,serif" font-size="18.00">bill carried clearing consolidation manual payment planning reservation statistical</text>
</g>
<!-- 1855980710224 -->
<g id="node2" class="node">
<title>1855980710224</title>
<polygon fill="#f7f7f7" stroke="black" points="1349.38,-320 1032.62,-320 1032.62,-284 1349.38,-284 1349.38,-320"/>
<text xml:space="preserve" text-anchor="middle" x="1191" y="-295.4" font-family="Times New Roman,serif" font-size="18.00">and are be billing doc doc doc is released</text>
</g>
<!-- 1855980710224&#45;&gt;1855980713968 -->
<g id="edge6" class="edge">
<title>1855980710224&#45;&gt;1855980713968</title>
<path fill="none" stroke="black" d="M1202.09,-283.97C1212.99,-267.22 1229.79,-241.41 1242.49,-221.89"/>
<polygon fill="black" stroke="black" points="1245.36,-223.9 1247.89,-213.61 1239.5,-220.08 1245.36,-223.9"/>
</g>
<!-- 1855980706528 -->
<g id="node3" class="node">
<title>1855980706528</title>
<polygon fill="#f7f7f7" stroke="black" points="846.25,-709.8 495.75,-709.8 495.75,-673.8 846.25,-673.8 846.25,-709.8"/>
<text xml:space="preserve" text-anchor="middle" x="671" y="-685.2" font-family="Times New Roman,serif" font-size="18.00">currency period profile profile rule settlement</text>
</g>
<!-- 1855980707920 -->
<g id="node4" class="node">
<title>1855980707920</title>
<ellipse fill="none" stroke="black" cx="671" cy="-514.4" rx="14.4" ry="14.4"/>
<g transform="translate(656.6,-528.8) scale(0.016981132075471698,0.016981132075471698)">

<g transform="translate(0.000000,1696.000000) scale(0.100000,-0.100000)"
fill="#000000" stroke="none">
<path d="M8130 16954 c-516 -29 -894 -74 -1320 -160 -903 -181 -1755 -502
-2555 -962 -355 -204 -646 -400 -980 -661 -2289 -1787 -3498 -4573 -3239
-7466 124 -1385 606 -2753 1377 -3910 511 -765 1134 -1437 1862 -2006 1246
-975 2752 -1581 4335 -1743 405 -42 1056 -54 1425 -28 1031 75 1987 311 2895
715 1449 644 2723 1721 3608 3049 1187 1782 1652 3931 1312 6058 -225 1401
-815 2749 -1694 3865 -961 1221 -2206 2142 -3641 2694 -773 296 -1604 480
-2450 541 -151 11 -813 21 -935 14z m935 -473 c1421 -115 2709 -557 3860
-1324 699 -467 1350 -1071 1876 -1742 771 -984 1297 -2128 1543 -3355 300
-1502 164 -3078 -389 -4490 -216 -553 -483 -1064 -807 -1549 -650 -969 -1558
-1833 -2552 -2425 -1899 -1133 -4174 -1434 -6298 -835 -1821 513 -3419 1674
-4484 3259 -879 1307 -1354 2863 -1354 4440 0 1817 591 3542 1699 4955 642
819 1455 1523 2346 2032 1077 616 2235 959 3515 1043 169 11 871 5 1045 -9z"/>
<path d="M5040 11915 l-1105 -1105 1163 -1163 c639 -639 1162 -1167 1162
-1172 0 -5 -523 -533 -1162 -1172 l-1163 -1163 1108 -1107 1107 -1108 1163
1163 c639 639 1167 1162 1172 1162 5 0 533 -523 1172 -1162 l1163 -1163 1107
1108 1108 1107 -1163 1163 c-639 639 -1162 1167 -1162 1172 0 5 523 533 1162
1172 l1163 1163 -1108 1107 -1107 1108 -1163 -1163 c-639 -639 -1167 -1162
-1172 -1162 -6 0 -532 522 -1170 1160 -638 638 -1162 1160 -1165 1160 -3 0
-502 -497 -1110 -1105z"/>
</g>
</g>
</g>
<!-- 1855980706528&#45;&gt;1855980707920 -->
<g id="edge7" class="edge">
<title>1855980706528&#45;&gt;1855980707920</title>
<path fill="none" stroke="black" d="M671,-673.34C671,-647.2 671,-597.03 671,-560.23"/>
<polygon fill="black" stroke="black" points="674.5,-560.31 671,-550.31 667.5,-560.31 674.5,-560.31"/>
</g>
<!-- 1855980707920&#45;&gt;1855980710224 -->
<g id="edge8" class="edge">
<title>1855980707920&#45;&gt;1855980710224</title>
<path fill="none" stroke="black" d="M932,-407.8C1010.01,-376.23 1087.91,-344.71 1137.59,-324.61"/>
<polygon fill="black" stroke="black" points="1138.71,-327.93 1146.66,-320.94 1136.08,-321.45 1138.71,-327.93"/>
</g>
<!-- 1855982046656 -->
<g id="node5" class="node">
<title>1855982046656</title>
<polygon fill="#ededed" stroke="black" points="376.88,-320 81.12,-320 81.12,-284 376.88,-284 376.88,-320"/>
<text xml:space="preserve" text-anchor="middle" x="229" y="-295.4" font-family="Times New Roman,serif" font-size="18.00">accrual deferral flows posting realized</text>
</g>
<!-- 1855980707920&#45;&gt;1855982046656 -->
<g id="edge2" class="edge">
<title>1855980707920&#45;&gt;1855982046656</title>
<path fill="none" stroke="black" d="M658.33,-506.92C622.22,-488.5 515.67,-434.46 426,-392 420.74,-389.51 415.4,-387 410,-384.47"/>
</g>
<!-- 1855980707968 -->
<g id="node7" class="node">
<title>1855980707968</title>
<polygon fill="#ededed" stroke="black" points="892.38,-320 449.62,-320 449.62,-284 892.38,-284 892.38,-320"/>
<text xml:space="preserve" text-anchor="middle" x="671" y="-295.4" font-family="Times New Roman,serif" font-size="18.00">down locked locked out payment received requests vendor</text>
</g>
<!-- 1855980707920&#45;&gt;1855980707968 -->
<g id="edge5" class="edge">
<title>1855980707920&#45;&gt;1855980707968</title>
<path fill="none" stroke="black" d="M671,-499.6C671,-467.6 671,-387.49 671,-340"/>
</g>
<!-- 1855980705904 -->
<g id="node6" class="node">
<title>1855980705904</title>
<polygon fill="#ededed" stroke="black" points="390.38,-428 67.62,-428 67.62,-392 390.38,-392 390.38,-428"/>
<text xml:space="preserve" text-anchor="middle" x="229" y="-403.4" font-family="Times New Roman,serif" font-size="18.00">and individual inventory l out posting was</text>
</g>
<!-- 1855980705904&#45;&gt;1855982046656 -->
<g id="edge1" class="edge">
<title>1855980705904&#45;&gt;1855982046656</title>
<path fill="none" stroke="black" d="M229,-391.97C229,-375.76 229,-351.06 229,-331.79"/>
<polygon fill="black" stroke="black" points="232.5,-331.85 229,-321.85 225.5,-331.85 232.5,-331.85"/>
</g>
<!-- 1855980703888 -->
<g id="node9" class="node">
<title>1855980703888</title>
<polygon fill="#ededed" stroke="black" points="863.5,-212 478.5,-212 478.5,-176 863.5,-176 863.5,-212"/>
<text xml:space="preserve" text-anchor="middle" x="671" y="-187.4" font-family="Times New Roman,serif" font-size="18.00">goods issue posted posted receipt receipt reference</text>
</g>
<!-- 1855980707968&#45;&gt;1855980703888 -->
<g id="edge3" class="edge">
<title>1855980707968&#45;&gt;1855980703888</title>
<path fill="none" stroke="black" d="M671,-283.97C671,-267.76 671,-243.06 671,-223.79"/>
<polygon fill="black" stroke="black" points="674.5,-223.85 671,-213.85 667.5,-223.85 674.5,-223.85"/>
</g>
<!-- 1855980708880 -->
<g id="node8" class="node">
<title>1855980708880</title>
<polygon fill="#ededed" stroke="black" points="770.88,-104 571.12,-104 571.12,-68 770.88,-68 770.88,-104"/>
<text xml:space="preserve" text-anchor="middle" x="671" y="-79.4" font-family="Times New Roman,serif" font-size="18.00">posted processing receipt</text>
</g>
<!-- 1855980703888&#45;&gt;1855980708880 -->
<g id="edge4" class="edge">
<title>1855980703888&#45;&gt;1855980708880</title>
<path fill="none" stroke="black" d="M671,-175.97C671,-159.76 671,-135.06 671,-115.79"/>
<polygon fill="black" stroke="black" points="674.5,-115.85 671,-105.85 667.5,-115.85 674.5,-115.85"/>
</g>
</g>
</svg>
